<svg xmlns="http://www.w3.org/2000/svg" width="684" height="684" viewBox="0 0 684 684">
<rect width="684" height="684" fill="#f6f6fa"/>
<g fill="none" stroke="#232447" stroke-width="9" stroke-linecap="butt" stroke-linejoin="round">
<polyline points="171,593.64 171,585 171,567 189,567 207,567 225,567 243,567 261,567 279,567 297,567 315,567 333,567 351,567 369,567 369,585 369,603 351,603 333,603 315,603 297,603 279,603 261,603 243,603 225,603 207,603 189,603 189,585 207,585 225,585 243,585 261,585 279,585 297,585" stroke="hsl(0 62% 42%)"/>
<polyline points="171,539.64 171,531 171,513 171,495 153,495 135,495 117,495 99,495 81,495 81,477 81,459 99,459 117,459 135,459 153,459 171,459 171,441 189,441 189,459 189,477 189,495 189,513 189,531 189,549 207,549 225,549 243,549 261,549" stroke="hsl(137.508 62% 42%)"/>
<polyline points="207,90.36 207,99 207,117 207,135 207,153 207,171 189,171 171,171 153,171 135,171 117,171 99,171 81,171 81,153 81,135 81,117" stroke="hsl(275.016 62% 42%)"/>
<polyline points="279,539.64 279,531 261,531 243,531 225,531" stroke="hsl(52.524 62% 42%)"/>
<polyline points="171,90.36 171,99 153,99 135,99 117,99 117,81 135,81 153,81" stroke="hsl(190.03200000000004 62% 42%)"/>
<polyline points="81,90.36 81,99 99,99 99,81" stroke="hsl(327.5400000000001 62% 42%)"/>
<polyline points="108.36,153 117,153 135,153 153,153 171,153 189,153 189,135 189,117 189,99 189,81" stroke="hsl(105.048 62% 42%)"/>
<polyline points="297,539.64 297,531 297,513 279,513" stroke="hsl(242.55600000000004 62% 42%)"/>
<polyline points="135,126.36 135,135 153,135 171,135 171,117 153,117" stroke="hsl(20.064000000000078 62% 42%)"/>
<polyline points="593.64,117 585,117 567,117 567,135 567,153 585,153 603,153 603,171 603,189 603,207 603,225 603,243 603,261 603,279 603,297 603,315 603,333 603,351 603,369 603,387 603,405 603,423 603,441 603,459 603,477 603,495 603,513 603,531 603,549 603,567 603,585 603,603 585,603 567,603 549,603 531,603 513,603 495,603 477,603 459,603 441,603 423,603 405,603 387,603 387,585 387,567 387,549 369,549 351,549 333,549" stroke="hsl(157.57200000000012 62% 42%)"/>
<polyline points="189,413.64 189,405 207,405 225,405 243,405 261,405 279,405 297,405 297,423 315,423 333,423 351,423 369,423 387,423 405,423 423,423 441,423 459,423 477,423 495,423 513,423 531,423 549,423 567,423" stroke="hsl(295.08000000000015 62% 42%)"/>
<polyline points="575.64,207 567,207 549,207 549,225 567,225 585,225 585,243 585,261 585,279 585,297 585,315 585,333 585,351 585,369 585,387 585,405 585,423 585,441 585,459 585,477 585,495 585,513 585,531 585,549 585,567 585,585 567,585 549,585 531,585 531,567 531,549 531,531 549,531 549,513 549,495 549,477 549,459 549,441 567,441 567,459 567,477 567,495 567,513 567,531 567,549 567,567 549,567 549,549" stroke="hsl(72.58800000000019 62% 42%)"/>
<polyline points="153,198.36 153,207 171,207 189,207 207,207 225,207 243,207 261,207 279,207 297,207 315,207 333,207 351,207 369,207 369,189 369,171 369,153 369,135 369,117 369,99 369,81 351,81 333,81 315,81 297,81 279,81 261,81" stroke="hsl(210.096 62% 42%)"/>
<polyline points="269.64,423 261,423 243,423 225,423 207,423 207,441 207,459 207,477 207,495 207,513 207,531" stroke="hsl(347.60400000000004 62% 42%)"/>
<polyline points="503.64,585 495,585 477,585 459,585 441,585 423,585 405,585 405,567 405,549 405,531 405,513 405,495 423,495 441,495 459,495 477,495 495,495 513,495 531,495 531,513 513,513 513,531 513,549 513,567 495,567 477,567 459,567 441,567 441,549 441,531 423,531 423,513 441,513 459,513 477,513 495,513 495,531 495,549 477,549 477,531 459,531 459,549" stroke="hsl(125.11200000000008 62% 42%)"/>
<polyline points="108.36,135 117,135" stroke="hsl(262.62000000000035 62% 42%)"/>
<polyline points="521.64,207 513,207 513,225 513,243 513,261 513,279 513,297 513,315 513,333 513,351 513,369 513,387 513,405 531,405 549,405 567,405 567,387 567,369 567,351 567,333 567,315 567,297 567,279 567,261 567,243 549,243 549,261 549,279 549,297 549,315 549,333 549,351 549,369 549,387 531,387 531,369 531,351 531,333 531,315 531,297 531,279" stroke="hsl(40.128000000000156 62% 42%)"/>
<polyline points="279,108.36 279,117 261,117 243,117 225,117 225,135 225,153 225,171 225,189 207,189 189,189 171,189" stroke="hsl(177.63599999999997 62% 42%)"/>
<polyline points="207,377.64 207,369 189,369 189,387 171,387 153,387 135,387 135,369 135,351 135,333 135,315 153,315 171,315 189,315 207,315 225,315 243,315 243,333 225,333 207,333 189,333 171,333 153,333 153,351 153,369 171,369 171,351 189,351 207,351 225,351 243,351 261,351 279,351 297,351 315,351 333,351 351,351 369,351 387,351 405,351 405,369 405,387 405,405 387,405 369,405" stroke="hsl(315.14400000000023 62% 42%)"/>
<polyline points="135,198.36 135,207 135,225 153,225 171,225 189,225 207,225 225,225 243,225 261,225 279,225 297,225 315,225 333,225 351,225 369,225 387,225 405,225 423,225 441,225 459,225 477,225 495,225" stroke="hsl(92.65200000000004 62% 42%)"/>
<polyline points="189,287.64 189,279 207,279 207,261 207,243 189,243 171,243 153,243 135,243 117,243 117,225 117,207 117,189 99,189 81,189 81,207 81,225 81,243 81,261 81,279 81,297 81,315 81,333 81,351 81,369 81,387 81,405 81,423 81,441 99,441 117,441 135,441 153,441 153,423 171,423 171,405 153,405 135,405 117,405 117,387 117,369 117,351 117,333 117,315 117,297 135,297 153,297 171,297 171,279" stroke="hsl(230.1600000000003 62% 42%)"/>
<polyline points="252.36,135 261,135 279,135 297,135 297,153 279,153 279,171 279,189 261,189 243,189 243,171 243,153 261,153 261,171" stroke="hsl(7.66800000000012 62% 42%)"/>
<polyline points="585,179.64 585,171 567,171 567,189 549,189" stroke="hsl(145.17600000000039 62% 42%)"/>
<polyline points="324.36,153 333,153 351,153 351,171 351,189 333,189 315,189 297,189 297,171 315,171 333,171" stroke="hsl(282.6840000000002 62% 42%)"/>
<polyline points="567,89.64 567,81 585,81 603,81 603,99 585,99" stroke="hsl(60.19200000000001 62% 42%)"/>
<polyline points="125.63999999999999,423 117,423 99,423 99,405 99,387 99,369 99,351 99,333 99,315 99,297 99,279 99,261 99,243 99,225 99,207" stroke="hsl(197.70000000000027 62% 42%)"/>
<polyline points="369,252.36 369,261 351,261 333,261 315,261" stroke="hsl(335.2080000000001 62% 42%)"/>
<polyline points="341.64,585 333,585 315,585" stroke="hsl(112.71600000000035 62% 42%)"/>
<polyline points="143.64,585 135,585 135,603 153,603" stroke="hsl(250.22400000000016 62% 42%)"/>
<polyline points="405,467.64 405,459" stroke="hsl(27.732000000000426 62% 42%)"/>
<polyline points="441,467.64 441,459 423,459 423,477" stroke="hsl(165.2400000000007 62% 42%)"/>
<polyline points="396.36,189 405,189 423,189 423,207 405,207 387,207" stroke="hsl(302.7480000000005 62% 42%)"/>
<polyline points="459,467.64 459,459 459,441 441,441 423,441 405,441 387,441 387,459 387,477 387,495 387,513 387,531 369,531 351,531 333,531 315,531 315,549" stroke="hsl(80.25600000000031 62% 42%)"/>
<polyline points="81,522.36 81,531 99,531 117,531" stroke="hsl(217.76400000000012 62% 42%)"/>
<polyline points="485.64,207 477,207 459,207 441,207 441,189 441,171 441,153 441,135 441,117 441,99 459,99 477,99 477,117 477,135 477,153 477,171 477,189 495,189 513,189 531,189 531,171 549,171 549,153 549,135 549,117 549,99 549,81 531,81 513,81 495,81 477,81 459,81 441,81 423,81 405,81 387,81 387,99 387,117 387,135 387,153 387,171 405,171 423,171 423,153 423,135 423,117 423,99 405,99 405,117 405,135 405,153" stroke="hsl(355.27199999999993 62% 42%)"/>
<polyline points="405,323.64 405,315 405,297 423,297 441,297 459,297 477,297 495,297 495,279 495,261 495,243 477,243 459,243 441,243 423,243 405,243 387,243 387,261 387,279 369,279" stroke="hsl(132.78000000000065 62% 42%)"/>
<polyline points="234.36,81 243,81" stroke="hsl(270.28800000000047 62% 42%)"/>
<polyline points="107.64,585 99,585 81,585 81,567 81,549 99,549 117,549 135,549" stroke="hsl(47.79600000000028 62% 42%)"/>
<polyline points="359.64,495 351,495 351,513 369,513" stroke="hsl(185.3040000000001 62% 42%)"/>
<polyline points="324.36,405 333,405 351,405 351,387 351,369 333,369 315,369 297,369 279,369 261,369 243,369 225,369 225,387" stroke="hsl(322.8120000000008 62% 42%)"/>
<polyline points="270.36,315 279,315 279,333 261,333" stroke="hsl(100.32000000000062 62% 42%)"/>
<polyline points="153,270.36 153,279 135,279 117,279 117,261 135,261" stroke="hsl(237.82800000000043 62% 42%)"/>
<polyline points="369,306.36 369,315 369,333 387,333 387,315 387,297" stroke="hsl(15.33600000000024 62% 42%)"/>
<polyline points="405,270.36 405,279 423,279 441,279 441,261 423,261" stroke="hsl(152.84400000000005 62% 42%)"/>
<polyline points="107.64,603 99,603 81,603" stroke="hsl(290.35200000000077 62% 42%)"/>
<polyline points="324.36,135 333,135 351,135 351,117" stroke="hsl(67.86000000000058 62% 42%)"/>
<polyline points="387,377.64 387,369 369,369 369,387" stroke="hsl(205.3680000000004 62% 42%)"/>
<polyline points="441,395.64 441,387 423,387 423,405" stroke="hsl(342.8760000000002 62% 42%)"/>
<polyline points="369,450.36 369,459" stroke="hsl(120.38400000000001 62% 42%)"/>
<polyline points="323.64,495 315,495 315,513 333,513" stroke="hsl(257.89200000000073 62% 42%)"/>
<polyline points="477,270.36 477,279 459,279 459,261" stroke="hsl(35.400000000000546 62% 42%)"/>
<polyline points="423,324.36 423,333 423,351 423,369 441,369 459,369 477,369 495,369 495,387 495,405 477,405 459,405 459,387 477,387" stroke="hsl(172.90800000000036 62% 42%)"/>
<polyline points="315,467.64 315,459 315,441 333,441 351,441 351,459 351,477 369,477" stroke="hsl(310.41600000000017 62% 42%)"/>
<polyline points="234.36,99 243,99 261,99" stroke="hsl(87.92400000000089 62% 42%)"/>
<polyline points="459,341.64 459,333 459,315 441,315 441,333 441,351" stroke="hsl(225.4320000000007 62% 42%)"/>
<polyline points="287.64,495 279,495 261,495 261,513" stroke="hsl(2.9400000000005093 62% 42%)"/>
<polyline points="306.36,333 315,333 333,333 351,333 351,315 351,297 351,279 333,279 315,279 297,279 279,279 279,297 261,297 243,297 225,297 207,297" stroke="hsl(140.44800000000032 62% 42%)"/>
<polyline points="486.36,333 495,333 495,351 477,351" stroke="hsl(277.95600000000013 62% 42%)"/>
<polyline points="306.36,99 315,99" stroke="hsl(55.46400000000085 62% 42%)"/>
<polyline points="233.64,495 225,495" stroke="hsl(192.97200000000066 62% 42%)"/>
<polyline points="306.36,315 315,315 333,315 333,297 315,297 297,297" stroke="hsl(330.4800000000014 62% 42%)"/>
<polyline points="251.64,279 243,279 225,279 225,261 225,243 243,243 261,243 279,243 297,243 315,243 333,243 351,243" stroke="hsl(107.9880000000012 62% 42%)"/>
<polyline points="233.64,513 225,513" stroke="hsl(245.496000000001 62% 42%)"/>
<polyline points="486.36,315 495,315" stroke="hsl(23.004000000000815 62% 42%)"/>
<polyline points="261,467.64 261,459 261,441 279,441" stroke="hsl(160.51200000000063 62% 42%)"/>
<polyline points="323.64,387 315,387 297,387 279,387" stroke="hsl(298.02000000000044 62% 42%)"/>
<polyline points="243,467.64 243,459 243,441 225,441 225,459 225,477" stroke="hsl(75.52800000000025 62% 42%)"/>
<polyline points="143.64,513 135,513 117,513 99,513" stroke="hsl(213.03600000000006 62% 42%)"/>
<polyline points="251.64,387 243,387" stroke="hsl(350.54399999999987 62% 42%)"/>
<polyline points="477,450.36 477,459 477,477 495,477 513,477" stroke="hsl(128.0520000000015 62% 42%)"/>
<polyline points="459,126.36 459,135 459,153 459,171 459,189" stroke="hsl(265.5600000000013 62% 42%)"/>
<polyline points="143.64,531 135,531" stroke="hsl(43.06800000000112 62% 42%)"/>
<polyline points="504.36,171 513,171 513,153 531,153 531,135" stroke="hsl(180.57600000000093 62% 42%)"/>
<polyline points="521.64,117 513,117 495,117 495,99 513,99 531,99" stroke="hsl(318.08400000000074 62% 42%)"/>
<polyline points="495,449.64 495,441 513,441 531,441" stroke="hsl(95.59200000000055 62% 42%)"/>
<polyline points="323.64,117 315,117 297,117" stroke="hsl(233.10000000000036 62% 42%)"/>
<polyline points="423,558.36 423,567" stroke="hsl(10.608000000000175 62% 42%)"/>
<polyline points="107.64,117 99,117" stroke="hsl(148.11599999999999 62% 42%)"/>
<polyline points="531,234.36 531,243 531,261" stroke="hsl(285.6240000000016 62% 42%)"/>
<polyline points="287.64,261 279,261 261,261 243,261" stroke="hsl(63.132000000001426 62% 42%)"/>
<polyline points="342.36,99 351,99" stroke="hsl(200.64000000000124 62% 42%)"/>
<polyline points="179.64,261 171,261" stroke="hsl(338.14800000000105 62% 42%)"/>
<polyline points="593.64,135 585,135" stroke="hsl(115.65600000000086 62% 42%)"/>
<polyline points="288.36,459 297,459 297,441" stroke="hsl(253.16400000000067 62% 42%)"/>
<polyline points="333,468.36 333,477" stroke="hsl(30.67200000000048 62% 42%)"/>
<polyline points="522.36,459 531,459 531,477" stroke="hsl(168.1800000000003 62% 42%)"/>
<polyline points="495,143.64 495,135 513,135" stroke="hsl(305.6880000000001 62% 42%)"/>
<polyline points="287.64,477 279,477" stroke="hsl(83.19600000000173 62% 42%)"/>
<polyline points="161.64,477 153,477 135,477 117,477 99,477" stroke="hsl(220.70400000000154 62% 42%)"/>
<polyline points="108.36,567 117,567 135,567 153,567 153,549" stroke="hsl(358.21200000000135 62% 42%)"/>
</g>
<g fill="#232447"><polygon points="171,611.64 175.5,593.64 175.5,591.84 166.5,591.84 166.5,593.64" fill="hsl(0 62% 42%)"/><circle cx="297" cy="585" r="4.5" fill="hsl(0 62% 42%)"/><polygon points="171,557.64 175.5,539.64 175.5,537.84 166.5,537.84 166.5,539.64" fill="hsl(137.508 62% 42%)"/><circle cx="261" cy="549" r="4.5" fill="hsl(137.508 62% 42%)"/><polygon points="207,72.36 202.5,90.36 202.5,92.16 211.5,92.16 211.5,90.36" fill="hsl(275.016 62% 42%)"/><circle cx="81" cy="117" r="4.5" fill="hsl(275.016 62% 42%)"/><polygon points="279,557.64 283.5,539.64 283.5,537.84 274.5,537.84 274.5,539.64" fill="hsl(52.524 62% 42%)"/><circle cx="225" cy="531" r="4.5" fill="hsl(52.524 62% 42%)"/><polygon points="171,72.36 166.5,90.36 166.5,92.16 175.5,92.16 175.5,90.36" fill="hsl(190.03200000000004 62% 42%)"/><circle cx="153" cy="81" r="4.5" fill="hsl(190.03200000000004 62% 42%)"/><polygon points="81,72.36 76.5,90.36 76.5,92.16 85.5,92.16 85.5,90.36" fill="hsl(327.5400000000001 62% 42%)"/><circle cx="99" cy="81" r="4.5" fill="hsl(327.5400000000001 62% 42%)"/><polygon points="90.36,153 108.36,157.5 110.16,157.5 110.16,148.5 108.36,148.5" fill="hsl(105.048 62% 42%)"/><circle cx="189" cy="81" r="4.5" fill="hsl(105.048 62% 42%)"/><polygon points="297,557.64 301.5,539.64 301.5,537.84 292.5,537.84 292.5,539.64" fill="hsl(242.55600000000004 62% 42%)"/><circle cx="279" cy="513" r="4.5" fill="hsl(242.55600000000004 62% 42%)"/><polygon points="135,108.36 130.5,126.36 130.5,128.16 139.5,128.16 139.5,126.36" fill="hsl(20.064000000000078 62% 42%)"/><circle cx="153" cy="117" r="4.5" fill="hsl(20.064000000000078 62% 42%)"/><polygon points="611.64,117 593.64,112.5 591.84,112.5 591.84,121.5 593.64,121.5" fill="hsl(157.57200000000012 62% 42%)"/><circle cx="333" cy="549" r="4.5" fill="hsl(157.57200000000012 62% 42%)"/><polygon points="189,431.64 193.5,413.64 193.5,411.84 184.5,411.84 184.5,413.64" fill="hsl(295.08000000000015 62% 42%)"/><circle cx="567" cy="423" r="4.5" fill="hsl(295.08000000000015 62% 42%)"/><polygon points="593.64,207 575.64,202.5 573.84,202.5 573.84,211.5 575.64,211.5" fill="hsl(72.58800000000019 62% 42%)"/><circle cx="549" cy="549" r="4.5" fill="hsl(72.58800000000019 62% 42%)"/><polygon points="153,180.36 148.5,198.36 148.5,200.16000000000003 157.5,200.16000000000003 157.5,198.36" fill="hsl(210.096 62% 42%)"/><circle cx="261" cy="81" r="4.5" fill="hsl(210.096 62% 42%)"/><polygon points="287.64,423 269.64,418.5 267.84,418.5 267.84,427.5 269.64,427.5" fill="hsl(347.60400000000004 62% 42%)"/><circle cx="207" cy="531" r="4.5" fill="hsl(347.60400000000004 62% 42%)"/><polygon points="521.64,585 503.64,580.5 501.84,580.5 501.84,589.5 503.64,589.5" fill="hsl(125.11200000000008 62% 42%)"/><circle cx="459" cy="549" r="4.5" fill="hsl(125.11200000000008 62% 42%)"/><polygon points="90.36,135 108.36,139.5 110.16,139.5 110.16,130.5 108.36,130.5" fill="hsl(262.62000000000035 62% 42%)"/><circle cx="117" cy="135" r="4.5" fill="hsl(262.62000000000035 62% 42%)"/><polygon points="539.64,207 521.64,202.5 519.84,202.5 519.84,211.5 521.64,211.5" fill="hsl(40.128000000000156 62% 42%)"/><circle cx="531" cy="279" r="4.5" fill="hsl(40.128000000000156 62% 42%)"/><polygon points="279,90.36 274.5,108.36 274.5,110.16 283.5,110.16 283.5,108.36" fill="hsl(177.63599999999997 62% 42%)"/><circle cx="171" cy="189" r="4.5" fill="hsl(177.63599999999997 62% 42%)"/><polygon points="207,395.64 211.5,377.64 211.5,375.84 202.5,375.84 202.5,377.64" fill="hsl(315.14400000000023 62% 42%)"/><circle cx="369" cy="405" r="4.5" fill="hsl(315.14400000000023 62% 42%)"/><polygon points="135,180.36 130.5,198.36 130.5,200.16000000000003 139.5,200.16000000000003 139.5,198.36" fill="hsl(92.65200000000004 62% 42%)"/><circle cx="495" cy="225" r="4.5" fill="hsl(92.65200000000004 62% 42%)"/><polygon points="189,305.64 193.5,287.64 193.5,285.84 184.5,285.84 184.5,287.64" fill="hsl(230.1600000000003 62% 42%)"/><circle cx="171" cy="279" r="4.5" fill="hsl(230.1600000000003 62% 42%)"/><polygon points="234.36,135 252.36,139.5 254.16000000000003,139.5 254.16000000000003,130.5 252.36,130.5" fill="hsl(7.66800000000012 62% 42%)"/><circle cx="261" cy="171" r="4.5" fill="hsl(7.66800000000012 62% 42%)"/><polygon points="585,197.64 589.5,179.64 589.5,177.83999999999997 580.5,177.83999999999997 580.5,179.64" fill="hsl(145.17600000000039 62% 42%)"/><circle cx="549" cy="189" r="4.5" fill="hsl(145.17600000000039 62% 42%)"/><polygon points="306.36,153 324.36,157.5 326.16,157.5 326.16,148.5 324.36,148.5" fill="hsl(282.6840000000002 62% 42%)"/><circle cx="333" cy="171" r="4.5" fill="hsl(282.6840000000002 62% 42%)"/><polygon points="567,107.64 571.5,89.64 571.5,87.84 562.5,87.84 562.5,89.64" fill="hsl(60.19200000000001 62% 42%)"/><circle cx="585" cy="99" r="4.5" fill="hsl(60.19200000000001 62% 42%)"/><polygon points="143.64,423 125.63999999999999,418.5 123.83999999999999,418.5 123.83999999999999,427.5 125.63999999999999,427.5" fill="hsl(197.70000000000027 62% 42%)"/><circle cx="99" cy="207" r="4.5" fill="hsl(197.70000000000027 62% 42%)"/><polygon points="369,234.36 364.5,252.36 364.5,254.16000000000003 373.5,254.16000000000003 373.5,252.36" fill="hsl(335.2080000000001 62% 42%)"/><circle cx="315" cy="261" r="4.5" fill="hsl(335.2080000000001 62% 42%)"/><polygon points="359.64,585 341.64,580.5 339.84,580.5 339.84,589.5 341.64,589.5" fill="hsl(112.71600000000035 62% 42%)"/><circle cx="315" cy="585" r="4.5" fill="hsl(112.71600000000035 62% 42%)"/><polygon points="161.64,585 143.64,580.5 141.83999999999997,580.5 141.83999999999997,589.5 143.64,589.5" fill="hsl(250.22400000000016 62% 42%)"/><circle cx="153" cy="603" r="4.5" fill="hsl(250.22400000000016 62% 42%)"/><polygon points="405,485.64 409.5,467.64 409.5,465.84 400.5,465.84 400.5,467.64" fill="hsl(27.732000000000426 62% 42%)"/><circle cx="405" cy="459" r="4.5" fill="hsl(27.732000000000426 62% 42%)"/><polygon points="441,485.64 445.5,467.64 445.5,465.84 436.5,465.84 436.5,467.64" fill="hsl(165.2400000000007 62% 42%)"/><circle cx="423" cy="477" r="4.5" fill="hsl(165.2400000000007 62% 42%)"/><polygon points="378.36,189 396.36,193.5 398.16,193.5 398.16,184.5 396.36,184.5" fill="hsl(302.7480000000005 62% 42%)"/><circle cx="387" cy="207" r="4.5" fill="hsl(302.7480000000005 62% 42%)"/><polygon points="459,485.64 463.5,467.64 463.5,465.84 454.5,465.84 454.5,467.64" fill="hsl(80.25600000000031 62% 42%)"/><circle cx="315" cy="549" r="4.5" fill="hsl(80.25600000000031 62% 42%)"/><polygon points="81,504.36 76.5,522.36 76.5,524.16 85.5,524.16 85.5,522.36" fill="hsl(217.76400000000012 62% 42%)"/><circle cx="117" cy="531" r="4.5" fill="hsl(217.76400000000012 62% 42%)"/><polygon points="503.64,207 485.64,202.5 483.84,202.5 483.84,211.5 485.64,211.5" fill="hsl(355.27199999999993 62% 42%)"/><circle cx="405" cy="153" r="4.5" fill="hsl(355.27199999999993 62% 42%)"/><polygon points="405,341.64 409.5,323.64 409.5,321.84 400.5,321.84 400.5,323.64" fill="hsl(132.78000000000065 62% 42%)"/><circle cx="369" cy="279" r="4.5" fill="hsl(132.78000000000065 62% 42%)"/><polygon points="216.36,81 234.36,85.5 236.16000000000003,85.5 236.16000000000003,76.5 234.36,76.5" fill="hsl(270.28800000000047 62% 42%)"/><circle cx="243" cy="81" r="4.5" fill="hsl(270.28800000000047 62% 42%)"/><polygon points="125.64,585 107.64,580.5 105.84,580.5 105.84,589.5 107.64,589.5" fill="hsl(47.79600000000028 62% 42%)"/><circle cx="135" cy="549" r="4.5" fill="hsl(47.79600000000028 62% 42%)"/><polygon points="377.64,495 359.64,490.5 357.84,490.5 357.84,499.5 359.64,499.5" fill="hsl(185.3040000000001 62% 42%)"/><circle cx="369" cy="513" r="4.5" fill="hsl(185.3040000000001 62% 42%)"/><polygon points="306.36,405 324.36,409.5 326.16,409.5 326.16,400.5 324.36,400.5" fill="hsl(322.8120000000008 62% 42%)"/><circle cx="225" cy="387" r="4.5" fill="hsl(322.8120000000008 62% 42%)"/><polygon points="252.36,315 270.36,319.5 272.16,319.5 272.16,310.5 270.36,310.5" fill="hsl(100.32000000000062 62% 42%)"/><circle cx="261" cy="333" r="4.5" fill="hsl(100.32000000000062 62% 42%)"/><polygon points="153,252.36 148.5,270.36 148.5,272.16 157.5,272.16 157.5,270.36" fill="hsl(237.82800000000043 62% 42%)"/><circle cx="135" cy="261" r="4.5" fill="hsl(237.82800000000043 62% 42%)"/><polygon points="369,288.36 364.5,306.36 364.5,308.16 373.5,308.16 373.5,306.36" fill="hsl(15.33600000000024 62% 42%)"/><circle cx="387" cy="297" r="4.5" fill="hsl(15.33600000000024 62% 42%)"/><polygon points="405,252.36 400.5,270.36 400.5,272.16 409.5,272.16 409.5,270.36" fill="hsl(152.84400000000005 62% 42%)"/><circle cx="423" cy="261" r="4.5" fill="hsl(152.84400000000005 62% 42%)"/><polygon points="125.64,603 107.64,598.5 105.84,598.5 105.84,607.5 107.64,607.5" fill="hsl(290.35200000000077 62% 42%)"/><circle cx="81" cy="603" r="4.5" fill="hsl(290.35200000000077 62% 42%)"/><polygon points="306.36,135 324.36,139.5 326.16,139.5 326.16,130.5 324.36,130.5" fill="hsl(67.86000000000058 62% 42%)"/><circle cx="351" cy="117" r="4.5" fill="hsl(67.86000000000058 62% 42%)"/><polygon points="387,395.64 391.5,377.64 391.5,375.84 382.5,375.84 382.5,377.64" fill="hsl(205.3680000000004 62% 42%)"/><circle cx="369" cy="387" r="4.5" fill="hsl(205.3680000000004 62% 42%)"/><polygon points="441,413.64 445.5,395.64 445.5,393.84 436.5,393.84 436.5,395.64" fill="hsl(342.8760000000002 62% 42%)"/><circle cx="423" cy="405" r="4.5" fill="hsl(342.8760000000002 62% 42%)"/><polygon points="369,432.36 364.5,450.36 364.5,452.16 373.5,452.16 373.5,450.36" fill="hsl(120.38400000000001 62% 42%)"/><circle cx="369" cy="459" r="4.5" fill="hsl(120.38400000000001 62% 42%)"/><polygon points="341.64,495 323.64,490.5 321.84,490.5 321.84,499.5 323.64,499.5" fill="hsl(257.89200000000073 62% 42%)"/><circle cx="333" cy="513" r="4.5" fill="hsl(257.89200000000073 62% 42%)"/><polygon points="477,252.36 472.5,270.36 472.5,272.16 481.5,272.16 481.5,270.36" fill="hsl(35.400000000000546 62% 42%)"/><circle cx="459" cy="261" r="4.5" fill="hsl(35.400000000000546 62% 42%)"/><polygon points="423,306.36 418.5,324.36 418.5,326.16 427.5,326.16 427.5,324.36" fill="hsl(172.90800000000036 62% 42%)"/><circle cx="477" cy="387" r="4.5" fill="hsl(172.90800000000036 62% 42%)"/><polygon points="315,485.64 319.5,467.64 319.5,465.84 310.5,465.84 310.5,467.64" fill="hsl(310.41600000000017 62% 42%)"/><circle cx="369" cy="477" r="4.5" fill="hsl(310.41600000000017 62% 42%)"/><polygon points="216.36,99 234.36,103.5 236.16000000000003,103.5 236.16000000000003,94.5 234.36,94.5" fill="hsl(87.92400000000089 62% 42%)"/><circle cx="261" cy="99" r="4.5" fill="hsl(87.92400000000089 62% 42%)"/><polygon points="459,359.64 463.5,341.64 463.5,339.84 454.5,339.84 454.5,341.64" fill="hsl(225.4320000000007 62% 42%)"/><circle cx="441" cy="351" r="4.5" fill="hsl(225.4320000000007 62% 42%)"/><polygon points="305.64,495 287.64,490.5 285.84,490.5 285.84,499.5 287.64,499.5" fill="hsl(2.9400000000005093 62% 42%)"/><circle cx="261" cy="513" r="4.5" fill="hsl(2.9400000000005093 62% 42%)"/><polygon points="288.36,333 306.36,337.5 308.16,337.5 308.16,328.5 306.36,328.5" fill="hsl(140.44800000000032 62% 42%)"/><circle cx="207" cy="297" r="4.5" fill="hsl(140.44800000000032 62% 42%)"/><polygon points="468.36,333 486.36,337.5 488.16,337.5 488.16,328.5 486.36,328.5" fill="hsl(277.95600000000013 62% 42%)"/><circle cx="477" cy="351" r="4.5" fill="hsl(277.95600000000013 62% 42%)"/><polygon points="288.36,99 306.36,103.5 308.16,103.5 308.16,94.5 306.36,94.5" fill="hsl(55.46400000000085 62% 42%)"/><circle cx="315" cy="99" r="4.5" fill="hsl(55.46400000000085 62% 42%)"/><polygon points="251.64,495 233.64,490.5 231.83999999999997,490.5 231.83999999999997,499.5 233.64,499.5" fill="hsl(192.97200000000066 62% 42%)"/><circle cx="225" cy="495" r="4.5" fill="hsl(192.97200000000066 62% 42%)"/><polygon points="288.36,315 306.36,319.5 308.16,319.5 308.16,310.5 306.36,310.5" fill="hsl(330.4800000000014 62% 42%)"/><circle cx="297" cy="297" r="4.5" fill="hsl(330.4800000000014 62% 42%)"/><polygon points="269.64,279 251.64,274.5 249.83999999999997,274.5 249.83999999999997,283.5 251.64,283.5" fill="hsl(107.9880000000012 62% 42%)"/><circle cx="351" cy="243" r="4.5" fill="hsl(107.9880000000012 62% 42%)"/><polygon points="251.64,513 233.64,508.5 231.83999999999997,508.5 231.83999999999997,517.5 233.64,517.5" fill="hsl(245.496000000001 62% 42%)"/><circle cx="225" cy="513" r="4.5" fill="hsl(245.496000000001 62% 42%)"/><polygon points="468.36,315 486.36,319.5 488.16,319.5 488.16,310.5 486.36,310.5" fill="hsl(23.004000000000815 62% 42%)"/><circle cx="495" cy="315" r="4.5" fill="hsl(23.004000000000815 62% 42%)"/><polygon points="261,485.64 265.5,467.64 265.5,465.84 256.5,465.84 256.5,467.64" fill="hsl(160.51200000000063 62% 42%)"/><circle cx="279" cy="441" r="4.5" fill="hsl(160.51200000000063 62% 42%)"/><polygon points="341.64,387 323.64,382.5 321.84,382.5 321.84,391.5 323.64,391.5" fill="hsl(298.02000000000044 62% 42%)"/><circle cx="279" cy="387" r="4.5" fill="hsl(298.02000000000044 62% 42%)"/><polygon points="243,485.64 247.5,467.64 247.5,465.84 238.5,465.84 238.5,467.64" fill="hsl(75.52800000000025 62% 42%)"/><circle cx="225" cy="477" r="4.5" fill="hsl(75.52800000000025 62% 42%)"/><polygon points="161.64,513 143.64,508.5 141.83999999999997,508.5 141.83999999999997,517.5 143.64,517.5" fill="hsl(213.03600000000006 62% 42%)"/><circle cx="99" cy="513" r="4.5" fill="hsl(213.03600000000006 62% 42%)"/><polygon points="269.64,387 251.64,382.5 249.83999999999997,382.5 249.83999999999997,391.5 251.64,391.5" fill="hsl(350.54399999999987 62% 42%)"/><circle cx="243" cy="387" r="4.5" fill="hsl(350.54399999999987 62% 42%)"/><polygon points="477,432.36 472.5,450.36 472.5,452.16 481.5,452.16 481.5,450.36" fill="hsl(128.0520000000015 62% 42%)"/><circle cx="513" cy="477" r="4.5" fill="hsl(128.0520000000015 62% 42%)"/><polygon points="459,108.36 454.5,126.36 454.5,128.16 463.5,128.16 463.5,126.36" fill="hsl(265.5600000000013 62% 42%)"/><circle cx="459" cy="189" r="4.5" fill="hsl(265.5600000000013 62% 42%)"/><polygon points="161.64,531 143.64,526.5 141.83999999999997,526.5 141.83999999999997,535.5 143.64,535.5" fill="hsl(43.06800000000112 62% 42%)"/><circle cx="135" cy="531" r="4.5" fill="hsl(43.06800000000112 62% 42%)"/><polygon points="486.36,171 504.36,175.5 506.16,175.5 506.16,166.5 504.36,166.5" fill="hsl(180.57600000000093 62% 42%)"/><circle cx="531" cy="135" r="4.5" fill="hsl(180.57600000000093 62% 42%)"/><polygon points="539.64,117 521.64,112.5 519.84,112.5 519.84,121.5 521.64,121.5" fill="hsl(318.08400000000074 62% 42%)"/><circle cx="531" cy="99" r="4.5" fill="hsl(318.08400000000074 62% 42%)"/><polygon points="495,467.64 499.5,449.64 499.5,447.84 490.5,447.84 490.5,449.64" fill="hsl(95.59200000000055 62% 42%)"/><circle cx="531" cy="441" r="4.5" fill="hsl(95.59200000000055 62% 42%)"/><polygon points="341.64,117 323.64,112.5 321.84,112.5 321.84,121.5 323.64,121.5" fill="hsl(233.10000000000036 62% 42%)"/><circle cx="297" cy="117" r="4.5" fill="hsl(233.10000000000036 62% 42%)"/><polygon points="423,540.36 418.5,558.36 418.5,560.16 427.5,560.16 427.5,558.36" fill="hsl(10.608000000000175 62% 42%)"/><circle cx="423" cy="567" r="4.5" fill="hsl(10.608000000000175 62% 42%)"/><polygon points="125.64,117 107.64,112.5 105.84,112.5 105.84,121.5 107.64,121.5" fill="hsl(148.11599999999999 62% 42%)"/><circle cx="99" cy="117" r="4.5" fill="hsl(148.11599999999999 62% 42%)"/><polygon points="531,216.36 526.5,234.36 526.5,236.16000000000003 535.5,236.16000000000003 535.5,234.36" fill="hsl(285.6240000000016 62% 42%)"/><circle cx="531" cy="261" r="4.5" fill="hsl(285.6240000000016 62% 42%)"/><polygon points="305.64,261 287.64,256.5 285.84,256.5 285.84,265.5 287.64,265.5" fill="hsl(63.132000000001426 62% 42%)"/><circle cx="243" cy="261" r="4.5" fill="hsl(63.132000000001426 62% 42%)"/><polygon points="324.36,99 342.36,103.5 344.16,103.5 344.16,94.5 342.36,94.5" fill="hsl(200.64000000000124 62% 42%)"/><circle cx="351" cy="99" r="4.5" fill="hsl(200.64000000000124 62% 42%)"/><polygon points="197.64,261 179.64,256.5 177.83999999999997,256.5 177.83999999999997,265.5 179.64,265.5" fill="hsl(338.14800000000105 62% 42%)"/><circle cx="171" cy="261" r="4.5" fill="hsl(338.14800000000105 62% 42%)"/><polygon points="611.64,135 593.64,130.5 591.84,130.5 591.84,139.5 593.64,139.5" fill="hsl(115.65600000000086 62% 42%)"/><circle cx="585" cy="135" r="4.5" fill="hsl(115.65600000000086 62% 42%)"/><polygon points="270.36,459 288.36,463.5 290.16,463.5 290.16,454.5 288.36,454.5" fill="hsl(253.16400000000067 62% 42%)"/><circle cx="297" cy="441" r="4.5" fill="hsl(253.16400000000067 62% 42%)"/><polygon points="333,450.36 328.5,468.36 328.5,470.16 337.5,470.16 337.5,468.36" fill="hsl(30.67200000000048 62% 42%)"/><circle cx="333" cy="477" r="4.5" fill="hsl(30.67200000000048 62% 42%)"/><polygon points="504.36,459 522.36,463.5 524.16,463.5 524.16,454.5 522.36,454.5" fill="hsl(168.1800000000003 62% 42%)"/><circle cx="531" cy="477" r="4.5" fill="hsl(168.1800000000003 62% 42%)"/><polygon points="495,161.64 499.5,143.64 499.5,141.83999999999997 490.5,141.83999999999997 490.5,143.64" fill="hsl(305.6880000000001 62% 42%)"/><circle cx="513" cy="135" r="4.5" fill="hsl(305.6880000000001 62% 42%)"/><polygon points="305.64,477 287.64,472.5 285.84,472.5 285.84,481.5 287.64,481.5" fill="hsl(83.19600000000173 62% 42%)"/><circle cx="279" cy="477" r="4.5" fill="hsl(83.19600000000173 62% 42%)"/><polygon points="179.64,477 161.64,472.5 159.83999999999997,472.5 159.83999999999997,481.5 161.64,481.5" fill="hsl(220.70400000000154 62% 42%)"/><circle cx="99" cy="477" r="4.5" fill="hsl(220.70400000000154 62% 42%)"/><polygon points="90.36,567 108.36,571.5 110.16,571.5 110.16,562.5 108.36,562.5" fill="hsl(358.21200000000135 62% 42%)"/><circle cx="153" cy="549" r="4.5" fill="hsl(358.21200000000135 62% 42%)"/></g>
</svg>