<svg xmlns="http://www.w3.org/2000/svg" width="576" height="576" viewBox="0 0 576 576">
<rect width="576" height="576" fill="#f6f6fa"/>
<g fill="none" stroke="#232447" stroke-width="9" stroke-linecap="butt" stroke-linejoin="round">
<polyline points="387,545.04 387,531 387,513 387,495" stroke="hsl(0 62% 42%)"/>
<polyline points="545.04,99 531,99 531,81 531,63" stroke="hsl(137.508 62% 42%)"/>
<polyline points="549,545.04 549,531 549,513 549,495" stroke="hsl(275.016 62% 42%)"/>
<polyline points="423,545.04 423,531 405,531 405,549" stroke="hsl(52.524 62% 42%)"/>
<polyline points="513,30.96 513,45 531,45 549,45" stroke="hsl(190.03200000000004 62% 42%)"/>
<polyline points="30.96,441 45,441 63,441 63,459" stroke="hsl(327.5400000000001 62% 42%)"/>
<polyline points="545.04,225 531,225 513,225 513,243" stroke="hsl(105.048 62% 42%)"/>
<polyline points="45,545.04 45,531 27,531 27,549" stroke="hsl(242.55600000000004 62% 42%)"/>
<polyline points="545.04,315 531,315 513,315 495,315" stroke="hsl(20.064000000000078 62% 42%)"/>
<polyline points="297,30.96 297,45 297,63 297,81" stroke="hsl(157.57200000000012 62% 42%)"/>
<polyline points="513,66.96 513,81 513,99 513,117" stroke="hsl(295.08000000000015 62% 42%)"/>
<polyline points="30.96,153 45,153 45,171 27,171" stroke="hsl(72.58800000000019 62% 42%)"/>
<polyline points="30.96,333 45,333 63,333 63,351" stroke="hsl(210.096 62% 42%)"/>
<polyline points="441,30.96 441,45 441,63 441,81" stroke="hsl(347.60400000000004 62% 42%)"/>
<polyline points="459,545.04 459,531 441,531 441,549" stroke="hsl(125.11200000000008 62% 42%)"/>
<polyline points="261,30.96 261,45 261,63 261,81" stroke="hsl(262.62000000000035 62% 42%)"/>
<polyline points="297,545.04 297,531 297,513 297,495" stroke="hsl(40.128000000000156 62% 42%)"/>
<polyline points="545.04,27 531,27" stroke="hsl(177.63599999999997 62% 42%)"/>
<polyline points="545.04,261 531,261 531,243 549,243" stroke="hsl(315.14400000000023 62% 42%)"/>
<polyline points="297,102.96 297,117 297,135 297,153" stroke="hsl(92.65200000000004 62% 42%)"/>
<polyline points="545.04,189 531,189 513,189 513,207" stroke="hsl(230.1600000000003 62% 42%)"/>
<polyline points="30.96,207 45,207 45,189 27,189" stroke="hsl(7.66800000000012 62% 42%)"/>
<polyline points="30.96,315 45,315 63,315 81,315" stroke="hsl(145.17600000000039 62% 42%)"/>
<polyline points="387,473.03999999999996 387,459 405,459 423,459" stroke="hsl(282.6840000000002 62% 42%)"/>
<polyline points="477,30.96 477,45 495,45 495,27" stroke="hsl(60.19200000000001 62% 42%)"/>
<polyline points="545.04,207 531,207" stroke="hsl(197.70000000000027 62% 42%)"/>
<polyline points="531,120.96 531,135 549,135 549,117" stroke="hsl(335.2080000000001 62% 42%)"/>
<polyline points="351,30.96 351,45 351,63 351,81" stroke="hsl(112.71600000000035 62% 42%)"/>
<polyline points="405,509.03999999999996 405,495 405,477 423,477" stroke="hsl(250.22400000000016 62% 42%)"/>
<polyline points="491.03999999999996,225 477,225 459,225 441,225" stroke="hsl(27.732000000000426 62% 42%)"/>
<polyline points="473.03999999999996,315 459,315 441,315 441,333" stroke="hsl(165.2400000000007 62% 42%)"/>
<polyline points="27,30.96 27,45 45,45 45,27" stroke="hsl(302.7480000000005 62% 42%)"/>
<polyline points="153,545.04 153,531 153,513 153,495" stroke="hsl(80.25600000000031 62% 42%)"/>
<polyline points="509.03999999999996,261 495,261 495,243 477,243" stroke="hsl(217.76400000000012 62% 42%)"/>
<polyline points="315,545.04 315,531 315,513 315,495" stroke="hsl(355.27199999999993 62% 42%)"/>
<polyline points="545.04,423 531,423 513,423 495,423" stroke="hsl(132.78000000000065 62% 42%)"/>
<polyline points="66.96,549 81,549 99,549 99,531" stroke="hsl(270.28800000000047 62% 42%)"/>
<polyline points="99,30.96 99,45 117,45 117,27" stroke="hsl(47.79600000000028 62% 42%)"/>
<polyline points="527.04,531 513,531 513,549 531,549" stroke="hsl(185.3040000000001 62% 42%)"/>
<polyline points="333,545.04 333,531 333,513 333,495" stroke="hsl(322.8120000000008 62% 42%)"/>
<polyline points="171,545.04 171,531 171,513 171,495" stroke="hsl(100.32000000000062 62% 42%)"/>
<polyline points="405,30.96 405,45 405,63 405,81" stroke="hsl(237.82800000000043 62% 42%)"/>
<polyline points="189,30.96 189,45 189,63 189,81" stroke="hsl(15.33600000000024 62% 42%)"/>
<polyline points="30.96,423 45,423 63,423 81,423" stroke="hsl(152.84400000000005 62% 42%)"/>
<polyline points="30.96,369 45,369 45,351 27,351" stroke="hsl(290.35200000000077 62% 42%)"/>
<polyline points="189,102.96 189,117 171,117 153,117" stroke="hsl(67.86000000000058 62% 42%)"/>
<polyline points="477,545.04 477,531 495,531 495,549" stroke="hsl(205.3680000000004 62% 42%)"/>
<polyline points="30.96,405 45,405 45,387 27,387" stroke="hsl(342.8760000000002 62% 42%)"/>
<polyline points="66.96,531 81,531 81,513 81,495" stroke="hsl(120.38400000000001 62% 42%)"/>
<polyline points="315,473.03999999999996 315,459 297,459 279,459" stroke="hsl(257.89200000000073 62% 42%)"/>
<polyline points="423,30.96 423,45 423,63 423,81" stroke="hsl(35.400000000000546 62% 42%)"/>
<polyline points="477,66.96 477,81 495,81 495,63" stroke="hsl(172.90800000000036 62% 42%)"/>
<polyline points="45,509.03999999999996 45,495 27,495 27,513" stroke="hsl(310.41600000000017 62% 42%)"/>
<polyline points="369,545.04 369,531 369,513 351,513" stroke="hsl(87.92400000000089 62% 42%)"/>
<polyline points="545.04,405 531,405 531,387 513,387" stroke="hsl(225.4320000000007 62% 42%)"/>
<polyline points="225,30.96 225,45 243,45 243,27" stroke="hsl(2.9400000000005093 62% 42%)"/>
<polyline points="225,66.96 225,81 243,81 243,63" stroke="hsl(140.44800000000032 62% 42%)"/>
<polyline points="419.03999999999996,225 405,225 387,225 369,225" stroke="hsl(277.95600000000013 62% 42%)"/>
<polyline points="27,66.96 27,81 27,99 27,117" stroke="hsl(55.46400000000085 62% 42%)"/>
<polyline points="27,473.03999999999996 27,459 45,459 45,477" stroke="hsl(192.97200000000066 62% 42%)"/>
<polyline points="84.96,459 99,459 99,477 81,477" stroke="hsl(330.4800000000014 62% 42%)"/>
<polyline points="459,30.96 459,45 459,63 459,81" stroke="hsl(107.9880000000012 62% 42%)"/>
<polyline points="66.96,387 81,387 81,405 63,405" stroke="hsl(245.496000000001 62% 42%)"/>
<polyline points="189,138.96 189,153 189,171 207,171" stroke="hsl(23.004000000000815 62% 42%)"/>
<polyline points="387,437.03999999999996 387,423 369,423 351,423" stroke="hsl(160.51200000000063 62% 42%)"/>
<polyline points="459,102.96 459,117 459,135 459,153" stroke="hsl(298.02000000000044 62% 42%)"/>
<polyline points="473.03999999999996,423 459,423 441,423 423,423" stroke="hsl(75.52800000000025 62% 42%)"/>
<polyline points="513,509.03999999999996 513,495 531,495 531,513" stroke="hsl(213.03600000000006 62% 42%)"/>
<polyline points="549,66.96 549,81" stroke="hsl(350.54399999999987 62% 42%)"/>
<polyline points="333,473.03999999999996 333,459 333,441 315,441" stroke="hsl(128.0520000000015 62% 42%)"/>
<polyline points="63,509.03999999999996 63,495 63,477" stroke="hsl(265.5600000000013 62% 42%)"/>
<polyline points="48.96,99 63,99 63,81 45,81" stroke="hsl(43.06800000000112 62% 42%)"/>
<polyline points="48.96,117 63,117 63,135 63,153" stroke="hsl(180.57600000000093 62% 42%)"/>
<polyline points="207,545.04 207,531 207,513 189,513" stroke="hsl(318.08400000000074 62% 42%)"/>
<polyline points="387,30.96 387,45 387,63 387,81" stroke="hsl(95.59200000000055 62% 42%)"/>
<polyline points="99,66.96 99,81 81,81 81,99" stroke="hsl(233.10000000000036 62% 42%)"/>
<polyline points="531,473.03999999999996 531,459 549,459 549,477" stroke="hsl(10.608000000000175 62% 42%)"/>
<polyline points="117,545.04 117,531 135,531 135,549" stroke="hsl(148.11599999999999 62% 42%)"/>
<polyline points="387,102.96 387,117 369,117 351,117" stroke="hsl(285.6240000000016 62% 42%)"/>
<polyline points="477,102.96 477,117 495,117 495,99" stroke="hsl(63.132000000001426 62% 42%)"/>
<polyline points="279,30.96 279,45 279,63 279,81" stroke="hsl(200.64000000000124 62% 42%)"/>
<polyline points="545.04,297 531,297 513,297 495,297" stroke="hsl(338.14800000000105 62% 42%)"/>
<polyline points="66.96,369 81,369 99,369 99,387" stroke="hsl(115.65600000000086 62% 42%)"/>
<polyline points="225,545.04 225,531 225,513 225,495" stroke="hsl(253.16400000000067 62% 42%)"/>
<polyline points="495,509.03999999999996 495,495 477,495 477,513" stroke="hsl(30.67200000000048 62% 42%)"/>
<polyline points="531,156.96 531,171 513,171 495,171" stroke="hsl(168.1800000000003 62% 42%)"/>
<polyline points="491.03999999999996,207 477,207 459,207 441,207" stroke="hsl(305.6880000000001 62% 42%)"/>
<polyline points="477,473.03999999999996 477,459 459,459 441,459" stroke="hsl(83.19600000000173 62% 42%)"/>
<polyline points="455.03999999999996,513 441,513 423,513 423,495" stroke="hsl(220.70400000000154 62% 42%)"/>
<polyline points="351,545.04 351,531" stroke="hsl(358.21200000000135 62% 42%)"/>
<polyline points="153,473.03999999999996 153,459 135,459 117,459" stroke="hsl(135.72000000000116 62% 42%)"/>
<polyline points="261,102.96 261,117 279,117 279,99" stroke="hsl(273.228000000001 62% 42%)"/>
<polyline points="347.03999999999996,225 333,225 315,225 315,243" stroke="hsl(50.736000000000786 62% 42%)"/>
<polyline points="437.03999999999996,99 423,99 405,99 405,117" stroke="hsl(188.2440000000006 62% 42%)"/>
<polyline points="545.04,279 531,279 513,279 495,279" stroke="hsl(325.7520000000004 62% 42%)"/>
<polyline points="495,138.96 495,153 513,153 513,135" stroke="hsl(103.26000000000022 62% 42%)"/>
<polyline points="225,102.96 225,117 207,117 207,135" stroke="hsl(240.76800000000003 62% 42%)"/>
<polyline points="171,30.96 171,45 153,45 135,45" stroke="hsl(18.27600000000166 62% 42%)"/>
<polyline points="545.04,351 531,351 531,369" stroke="hsl(155.78400000000147 62% 42%)"/>
<polyline points="509.03999999999996,459 495,459 495,477 513,477" stroke="hsl(293.2920000000013 62% 42%)"/>
<polyline points="545.04,441 531,441 513,441 495,441" stroke="hsl(70.80000000000109 62% 42%)"/>
<polyline points="351,491.03999999999996 351,477 369,477 369,495" stroke="hsl(208.3080000000009 62% 42%)"/>
<polyline points="387,401.03999999999996 387,387 387,369 369,369" stroke="hsl(345.8160000000007 62% 42%)"/>
<polyline points="243,545.04 243,531 261,531 279,531" stroke="hsl(123.32400000000052 62% 42%)"/>
<polyline points="45,293.03999999999996 45,279 27,279 27,297" stroke="hsl(260.83200000000033 62% 42%)"/>
<polyline points="509.03999999999996,405 495,405 477,405 477,387" stroke="hsl(38.340000000000146 62% 42%)"/>
<polyline points="120.96,387 135,387 135,405 135,423" stroke="hsl(175.84800000000178 62% 42%)"/>
<polyline points="369,30.96 369,45 369,63 369,81" stroke="hsl(313.3560000000016 62% 42%)"/>
<polyline points="261,138.96 261,153 279,153 279,135" stroke="hsl(90.8640000000014 62% 42%)"/>
<polyline points="117,66.96 117,81 117,99 99,99" stroke="hsl(228.3720000000012 62% 42%)"/>
<polyline points="423,120.96 423,135 405,135 387,135" stroke="hsl(5.880000000001019 62% 42%)"/>
<polyline points="174.96,459 189,459" stroke="hsl(143.38800000000083 62% 42%)"/>
<polyline points="63,30.96 63,45 81,45 81,27" stroke="hsl(280.89600000000064 62% 42%)"/>
<polyline points="66.96,297 81,297 99,297 99,315" stroke="hsl(58.40400000000045 62% 42%)"/>
<polyline points="117,120.96 117,135 117,153 99,153" stroke="hsl(195.91200000000026 62% 42%)"/>
<polyline points="120.96,315 135,315 135,333 135,351" stroke="hsl(333.4200000000019 62% 42%)"/>
<polyline points="513,336.96000000000004 513,351 513,369" stroke="hsl(110.9280000000017 62% 42%)"/>
<polyline points="329.03999999999996,45 315,45 315,27 333,27" stroke="hsl(248.4360000000015 62% 42%)"/>
<polyline points="545.04,333 531,333" stroke="hsl(25.944000000001324 62% 42%)"/>
<polyline points="455.03999999999996,477 441,477 441,495 459,495" stroke="hsl(163.45200000000114 62% 42%)"/>
<polyline points="66.96,207 81,207 81,225 81,243" stroke="hsl(300.96000000000276 62% 42%)"/>
<polyline points="455.03999999999996,405 441,405 423,405 405,405" stroke="hsl(78.46800000000076 62% 42%)"/>
<polyline points="153,437.03999999999996 153,423 153,405 153,387" stroke="hsl(215.9760000000024 62% 42%)"/>
<polyline points="477,138.96 477,153" stroke="hsl(353.4840000000004 62% 42%)"/>
<polyline points="66.96,189 81,189 99,189 99,207" stroke="hsl(130.992000000002 62% 42%)"/>
<polyline points="473.03999999999996,279 459,279 459,297 477,297" stroke="hsl(268.5 62% 42%)"/>
<polyline points="423,156.96 423,171 423,189 423,207" stroke="hsl(46.00800000000163 62% 42%)"/>
<polyline points="405,437.03999999999996 405,423" stroke="hsl(183.51599999999962 62% 42%)"/>
<polyline points="207,491.03999999999996 207,477 207,459 225,459" stroke="hsl(321.02400000000125 62% 42%)"/>
<polyline points="117,174.96 117,189 135,189 153,189" stroke="hsl(98.53200000000288 62% 42%)"/>
<polyline points="365.03999999999996,405 351,405 333,405 333,423" stroke="hsl(236.04000000000087 62% 42%)"/>
<polyline points="99,509.03999999999996 99,495 117,495 135,495" stroke="hsl(13.548000000002503 62% 42%)"/>
<polyline points="405,156.96 405,171 405,189 405,207" stroke="hsl(151.0560000000005 62% 42%)"/>
<polyline points="455.03999999999996,243 441,243 423,243 405,243" stroke="hsl(288.5640000000021 62% 42%)"/>
<polyline points="120.96,297 135,297 153,297 153,315" stroke="hsl(66.07200000000012 62% 42%)"/>
<polyline points="174.96,387 189,387 189,405 171,405" stroke="hsl(203.58000000000175 62% 42%)"/>
<polyline points="243,102.96 243,117 243,135 225,135" stroke="hsl(341.08799999999974 62% 42%)"/>
<polyline points="333,383.03999999999996 333,369 351,369" stroke="hsl(118.59600000000137 62% 42%)"/>
<polyline points="297,174.96 297,189 297,207 297,225" stroke="hsl(256.104000000003 62% 42%)"/>
<polyline points="333,66.96 333,81 315,81 315,63" stroke="hsl(33.61200000000099 62% 42%)"/>
<polyline points="473.03999999999996,441 459,441 441,441 423,441" stroke="hsl(171.12000000000262 62% 42%)"/>
<polyline points="491.03999999999996,351 477,351 477,369" stroke="hsl(308.6280000000006 62% 42%)"/>
<polyline points="275.03999999999996,225 261,225 261,243 279,243" stroke="hsl(86.13600000000224 62% 42%)"/>
<polyline points="459,174.96 459,189 441,189 441,171" stroke="hsl(223.64400000000023 62% 42%)"/>
<polyline points="311.03999999999996,405 297,405 279,405 261,405" stroke="hsl(1.1520000000018626 62% 42%)"/>
<polyline points="491.03999999999996,333 477,333 459,333 459,351" stroke="hsl(138.65999999999985 62% 42%)"/>
<polyline points="383.03999999999996,207 369,207 351,207 333,207" stroke="hsl(276.1680000000015 62% 42%)"/>
<polyline points="423,383.03999999999996 423,369 405,369 405,387" stroke="hsl(53.676000000003114 62% 42%)"/>
<polyline points="423,347.03999999999996 423,333 423,315 423,297" stroke="hsl(191.1840000000011 62% 42%)"/>
<polyline points="333,347.03999999999996 333,333 351,333 369,333" stroke="hsl(328.69200000000274 62% 42%)"/>
<polyline points="365.03999999999996,441 351,441 351,459 369,459" stroke="hsl(106.20000000000073 62% 42%)"/>
<polyline points="423,275.03999999999996 423,261 405,261 405,279" stroke="hsl(243.70800000000236 62% 42%)"/>
<polyline points="333,311.03999999999996 333,297 315,297 297,297" stroke="hsl(21.21600000000035 62% 42%)"/>
<polyline points="138.96,99 153,99 171,99 171,81" stroke="hsl(158.72400000000198 62% 42%)"/>
<polyline points="401.03999999999996,315 387,315 387,333 387,351" stroke="hsl(296.23199999999997 62% 42%)"/>
<polyline points="311.03999999999996,423 297,423 279,423 261,423" stroke="hsl(73.7400000000016 62% 42%)"/>
<polyline points="365.03999999999996,315 351,315 351,297 351,279" stroke="hsl(211.24800000000323 62% 42%)"/>
<polyline points="261,174.96 261,189 261,207 279,207" stroke="hsl(348.7560000000012 62% 42%)"/>
<polyline points="495,383.03999999999996 495,369" stroke="hsl(126.26400000000285 62% 42%)"/>
<polyline points="45,257.03999999999996 45,243 27,243 27,261" stroke="hsl(263.77200000000084 62% 42%)"/>
<polyline points="333,102.96 333,117 333,135 315,135" stroke="hsl(41.280000000002474 62% 42%)"/>
<polyline points="207,30.96 207,45 207,63" stroke="hsl(178.78800000000047 62% 42%)"/>
<polyline points="405,347.03999999999996 405,333" stroke="hsl(316.2960000000021 62% 42%)"/>
<polyline points="239.04,423 225,423 207,423 207,405" stroke="hsl(93.80400000000009 62% 42%)"/>
<polyline points="275.03999999999996,513 261,513 261,495 261,477" stroke="hsl(231.31200000000172 62% 42%)"/>
<polyline points="243,509.03999999999996 243,495 243,477 225,477" stroke="hsl(8.820000000003347 62% 42%)"/>
<polyline points="293.03999999999996,441 279,441 261,441 261,459" stroke="hsl(146.32800000000134 62% 42%)"/>
<polyline points="189,545.04 189,531" stroke="hsl(283.83600000000297 62% 42%)"/>
<polyline points="239.04,225 225,225 225,243" stroke="hsl(61.34400000000096 62% 42%)"/>
<polyline points="473.03999999999996,261 459,261 441,261" stroke="hsl(198.8520000000026 62% 42%)"/>
<polyline points="315,102.96 315,117" stroke="hsl(336.3600000000006 62% 42%)"/>
<polyline points="120.96,513 135,513" stroke="hsl(113.86800000000221 62% 42%)"/>
<polyline points="333,275.03999999999996 333,261 333,243 351,243" stroke="hsl(251.3760000000002 62% 42%)"/>
<polyline points="311.03999999999996,333 297,333 297,351 297,369" stroke="hsl(28.884000000001834 62% 42%)"/>
<polyline points="549,156.96 549,171" stroke="hsl(166.39200000000346 62% 42%)"/>
<polyline points="185.04,423 171,423 171,441 189,441" stroke="hsl(303.90000000000146 62% 42%)"/>
<polyline points="549,383.03999999999996 549,369" stroke="hsl(81.40800000000309 62% 42%)"/>
<polyline points="315,156.96 315,171 315,189 315,207" stroke="hsl(218.91600000000108 62% 42%)"/>
<polyline points="174.96,297 189,297 207,297 225,297" stroke="hsl(356.4240000000027 62% 42%)"/>
<polyline points="30.96,225 45,225 63,225 63,243" stroke="hsl(133.9320000000007 62% 42%)"/>
<polyline points="84.96,333 99,333 117,333 117,351" stroke="hsl(271.4400000000023 62% 42%)"/>
<polyline points="455.03999999999996,387 441,387" stroke="hsl(48.94800000000032 62% 42%)"/>
<polyline points="279,174.96 279,189" stroke="hsl(186.45600000000195 62% 42%)"/>
<polyline points="243,455.03999999999996 243,441 225,441 207,441" stroke="hsl(323.9640000000036 62% 42%)"/>
<polyline points="207,84.96 207,99" stroke="hsl(101.47200000000157 62% 42%)"/>
<polyline points="189,491.03999999999996 189,477 171,477" stroke="hsl(238.9800000000032 62% 42%)"/>
<polyline points="174.96,189 189,189 207,189 225,189" stroke="hsl(16.488000000001193 62% 42%)"/>
<polyline points="207,383.03999999999996 207,369 189,369 171,369" stroke="hsl(153.99600000000282 62% 42%)"/>
<polyline points="63,275.03999999999996 63,261 81,261 99,261" stroke="hsl(291.5040000000008 62% 42%)"/>
<polyline points="102.96,243 117,243 135,243 153,243" stroke="hsl(69.01200000000244 62% 42%)"/>
<polyline points="315,264.96000000000004 315,279 297,279 279,279" stroke="hsl(206.52000000000044 62% 42%)"/>
<polyline points="189,347.03999999999996 189,333 189,315 171,315" stroke="hsl(344.02800000000207 62% 42%)"/>
<polyline points="275.03999999999996,549 261,549" stroke="hsl(121.53600000000006 62% 42%)"/>
<polyline points="293.03999999999996,477 279,477 279,495" stroke="hsl(259.0440000000017 62% 42%)"/>
<polyline points="156.96,333 171,333 171,351 153,351" stroke="hsl(36.55200000000332 62% 42%)"/>
<polyline points="167.04,63 153,63 135,63" stroke="hsl(174.0600000000013 62% 42%)"/>
<polyline points="149.04,27 135,27" stroke="hsl(311.56800000000294 62% 42%)"/>
<polyline points="171,275.03999999999996 171,261 153,261 135,261" stroke="hsl(89.07600000000093 62% 42%)"/>
<polyline points="246.96,297 261,297 261,279 261,261" stroke="hsl(226.58400000000256 62% 42%)"/>
<polyline points="297,246.96 297,261 279,261" stroke="hsl(4.092000000000553 62% 42%)"/>
<polyline points="365.03999999999996,387 351,387" stroke="hsl(141.60000000000218 62% 42%)"/>
<polyline points="30.96,135 45,135" stroke="hsl(279.1080000000002 62% 42%)"/>
<polyline points="383.03999999999996,261 369,261 351,261" stroke="hsl(56.616000000001804 62% 42%)"/>
<polyline points="315,383.03999999999996 315,369 315,351" stroke="hsl(194.12400000000343 62% 42%)"/>
<polyline points="102.96,225 117,225 117,207 135,207" stroke="hsl(331.6320000000014 62% 42%)"/>
<polyline points="243,401.03999999999996 243,387 243,369 225,369" stroke="hsl(109.14000000000306 62% 42%)"/>
<polyline points="171,138.96 171,153 171,171 153,171" stroke="hsl(246.64800000000105 62% 42%)"/>
<polyline points="477,174.96 477,189 495,189" stroke="hsl(24.156000000002678 62% 42%)"/>
<polyline points="138.96,81 153,81" stroke="hsl(161.66400000000067 62% 42%)"/>
<polyline points="333,185.04 333,171 333,153 351,153" stroke="hsl(299.1720000000023 62% 42%)"/>
<polyline points="387,156.96 387,171 387,189 369,189" stroke="hsl(76.68000000000029 62% 42%)"/>
<polyline points="171,210.96 171,225 171,243 189,243" stroke="hsl(214.18800000000192 62% 42%)"/>
<polyline points="48.96,63 63,63 81,63" stroke="hsl(351.69600000000355 62% 42%)"/>
<polyline points="455.03999999999996,369 441,369 441,351" stroke="hsl(129.20400000000154 62% 42%)"/>
<polyline points="102.96,405 117,405 117,423" stroke="hsl(266.7120000000032 62% 42%)"/>
<polyline points="99,120.96 99,135" stroke="hsl(44.220000000001164 62% 42%)"/>
<polyline points="225,401.03999999999996 225,387" stroke="hsl(181.7280000000028 62% 42%)"/>
<polyline points="131.04,441 117,441" stroke="hsl(319.2360000000008 62% 42%)"/>
<polyline points="207,347.03999999999996 207,333 207,315 225,315" stroke="hsl(96.74400000000242 62% 42%)"/>
<polyline points="225,347.03999999999996 225,333 243,333 261,333" stroke="hsl(234.2520000000004 62% 42%)"/>
<polyline points="207,275.03999999999996 207,261 189,261 189,279" stroke="hsl(11.760000000002037 62% 42%)"/>
<polyline points="84.96,279 99,279 117,279 117,261" stroke="hsl(149.26800000000367 62% 42%)"/>
<polyline points="135,120.96 135,135 153,135 153,153" stroke="hsl(286.77600000000166 62% 42%)"/>
<polyline points="311.03999999999996,315 297,315" stroke="hsl(64.28400000000329 62% 42%)"/>
<polyline points="383.03999999999996,243 369,243" stroke="hsl(201.79200000000128 62% 42%)"/>
<polyline points="261,383.03999999999996 261,369 279,369 279,351" stroke="hsl(339.3000000000029 62% 42%)"/>
<polyline points="131.04,477 117,477" stroke="hsl(116.8080000000009 62% 42%)"/>
<polyline points="282.96000000000004,387 297,387" stroke="hsl(254.31600000000253 62% 42%)"/>
<polyline points="365.03999999999996,99 351,99" stroke="hsl(31.824000000000524 62% 42%)"/>
<polyline points="365.03999999999996,171 351,171 351,189" stroke="hsl(169.33200000000215 62% 42%)"/>
<polyline points="138.96,225 153,225 153,207" stroke="hsl(306.8400000000038 62% 42%)"/>
<polyline points="207,239.04 207,225 207,207 225,207" stroke="hsl(84.34800000000178 62% 42%)"/>
<polyline points="84.96,441 99,441 99,423" stroke="hsl(221.8560000000034 62% 42%)"/>
<polyline points="120.96,369 135,369 153,369" stroke="hsl(359.3640000000014 62% 42%)"/>
<polyline points="365.03999999999996,351 351,351" stroke="hsl(136.87200000000303 62% 42%)"/>
<polyline points="138.96,279 153,279" stroke="hsl(274.380000000001 62% 42%)"/>
<polyline points="66.96,171 81,171 99,171" stroke="hsl(51.88800000000265 62% 42%)"/>
<polyline points="441,293.03999999999996 441,279" stroke="hsl(189.39600000000064 62% 42%)"/>
<polyline points="257.03999999999996,351 243,351" stroke="hsl(326.90400000000227 62% 42%)"/>
<polyline points="228.96,261 243,261 243,243" stroke="hsl(104.4120000000039 62% 42%)"/>
<polyline points="369,293.03999999999996 369,279 387,279" stroke="hsl(241.92000000000553 62% 42%)"/>
<polyline points="84.96,351 99,351" stroke="hsl(19.427999999999884 62% 42%)"/>
<polyline points="135,156.96 135,171" stroke="hsl(156.9360000000015 62% 42%)"/>
<polyline points="228.96,171 243,171 243,189 243,207" stroke="hsl(294.44400000000314 62% 42%)"/>
<polyline points="441,149.04 441,135 441,117" stroke="hsl(71.95200000000477 62% 42%)"/>
<polyline points="81,149.04 81,135 81,117" stroke="hsl(209.45999999999913 62% 42%)"/>
<polyline points="210.96,153 225,153 243,153" stroke="hsl(346.96800000000076 62% 42%)"/>
<polyline points="279,300.96000000000004 279,315 279,333" stroke="hsl(124.47600000000239 62% 42%)"/>
<polyline points="390.96000000000004,297 405,297" stroke="hsl(261.984000000004 62% 42%)"/>
<polyline points="246.96,315 261,315" stroke="hsl(39.492000000005646 62% 42%)"/>
<polyline points="189,210.96 189,225" stroke="hsl(177 62% 42%)"/>
<polyline points="239.04,279 225,279" stroke="hsl(314.50800000000163 62% 42%)"/>
<polyline points="354.96000000000004,135 369,135 369,153" stroke="hsl(92.01600000000326 62% 42%)"/>
</g>
<g fill="#232447"><polygon points="387,557.64 391.5,545.04 391.5,543.24 382.5,543.24 382.5,545.04" fill="hsl(0 62% 42%)"/><circle cx="387" cy="495" r="4.5" fill="hsl(0 62% 42%)"/><polygon points="557.64,99 545.04,94.5 543.24,94.5 543.24,103.5 545.04,103.5" fill="hsl(137.508 62% 42%)"/><circle cx="531" cy="63" r="4.5" fill="hsl(137.508 62% 42%)"/><polygon points="549,557.64 553.5,545.04 553.5,543.24 544.5,543.24 544.5,545.04" fill="hsl(275.016 62% 42%)"/><circle cx="549" cy="495" r="4.5" fill="hsl(275.016 62% 42%)"/><polygon points="423,557.64 427.5,545.04 427.5,543.24 418.5,543.24 418.5,545.04" fill="hsl(52.524 62% 42%)"/><circle cx="405" cy="549" r="4.5" fill="hsl(52.524 62% 42%)"/><polygon points="513,18.36 508.5,30.96 508.5,32.76 517.5,32.76 517.5,30.96" fill="hsl(190.03200000000004 62% 42%)"/><circle cx="549" cy="45" r="4.5" fill="hsl(190.03200000000004 62% 42%)"/><polygon points="18.36,441 30.96,445.5 32.76,445.5 32.76,436.5 30.96,436.5" fill="hsl(327.5400000000001 62% 42%)"/><circle cx="63" cy="459" r="4.5" fill="hsl(327.5400000000001 62% 42%)"/><polygon points="557.64,225 545.04,220.5 543.24,220.5 543.24,229.5 545.04,229.5" fill="hsl(105.048 62% 42%)"/><circle cx="513" cy="243" r="4.5" fill="hsl(105.048 62% 42%)"/><polygon points="45,557.64 49.5,545.04 49.5,543.24 40.5,543.24 40.5,545.04" fill="hsl(242.55600000000004 62% 42%)"/><circle cx="27" cy="549" r="4.5" fill="hsl(242.55600000000004 62% 42%)"/><polygon points="557.64,315 545.04,310.5 543.24,310.5 543.24,319.5 545.04,319.5" fill="hsl(20.064000000000078 62% 42%)"/><circle cx="495" cy="315" r="4.5" fill="hsl(20.064000000000078 62% 42%)"/><polygon points="297,18.36 292.5,30.96 292.5,32.76 301.5,32.76 301.5,30.96" fill="hsl(157.57200000000012 62% 42%)"/><circle cx="297" cy="81" r="4.5" fill="hsl(157.57200000000012 62% 42%)"/><polygon points="513,54.36 508.5,66.96 508.5,68.75999999999999 517.5,68.75999999999999 517.5,66.96" fill="hsl(295.08000000000015 62% 42%)"/><circle cx="513" cy="117" r="4.5" fill="hsl(295.08000000000015 62% 42%)"/><polygon points="18.36,153 30.96,157.5 32.76,157.5 32.76,148.5 30.96,148.5" fill="hsl(72.58800000000019 62% 42%)"/><circle cx="27" cy="171" r="4.5" fill="hsl(72.58800000000019 62% 42%)"/><polygon points="18.36,333 30.96,337.5 32.76,337.5 32.76,328.5 30.96,328.5" fill="hsl(210.096 62% 42%)"/><circle cx="63" cy="351" r="4.5" fill="hsl(210.096 62% 42%)"/><polygon points="441,18.36 436.5,30.96 436.5,32.76 445.5,32.76 445.5,30.96" fill="hsl(347.60400000000004 62% 42%)"/><circle cx="441" cy="81" r="4.5" fill="hsl(347.60400000000004 62% 42%)"/><polygon points="459,557.64 463.5,545.04 463.5,543.24 454.5,543.24 454.5,545.04" fill="hsl(125.11200000000008 62% 42%)"/><circle cx="441" cy="549" r="4.5" fill="hsl(125.11200000000008 62% 42%)"/><polygon points="261,18.36 256.5,30.96 256.5,32.76 265.5,32.76 265.5,30.96" fill="hsl(262.62000000000035 62% 42%)"/><circle cx="261" cy="81" r="4.5" fill="hsl(262.62000000000035 62% 42%)"/><polygon points="297,557.64 301.5,545.04 301.5,543.24 292.5,543.24 292.5,545.04" fill="hsl(40.128000000000156 62% 42%)"/><circle cx="297" cy="495" r="4.5" fill="hsl(40.128000000000156 62% 42%)"/><polygon points="557.64,27 545.04,22.5 543.24,22.5 543.24,31.5 545.04,31.5" fill="hsl(177.63599999999997 62% 42%)"/><circle cx="531" cy="27" r="4.5" fill="hsl(177.63599999999997 62% 42%)"/><polygon points="557.64,261 545.04,256.5 543.24,256.5 543.24,265.5 545.04,265.5" fill="hsl(315.14400000000023 62% 42%)"/><circle cx="549" cy="243" r="4.5" fill="hsl(315.14400000000023 62% 42%)"/><polygon points="297,90.36 292.5,102.96 292.5,104.75999999999999 301.5,104.75999999999999 301.5,102.96" fill="hsl(92.65200000000004 62% 42%)"/><circle cx="297" cy="153" r="4.5" fill="hsl(92.65200000000004 62% 42%)"/><polygon points="557.64,189 545.04,184.5 543.24,184.5 543.24,193.5 545.04,193.5" fill="hsl(230.1600000000003 62% 42%)"/><circle cx="513" cy="207" r="4.5" fill="hsl(230.1600000000003 62% 42%)"/><polygon points="18.36,207 30.96,211.5 32.76,211.5 32.76,202.5 30.96,202.5" fill="hsl(7.66800000000012 62% 42%)"/><circle cx="27" cy="189" r="4.5" fill="hsl(7.66800000000012 62% 42%)"/><polygon points="18.36,315 30.96,319.5 32.76,319.5 32.76,310.5 30.96,310.5" fill="hsl(145.17600000000039 62% 42%)"/><circle cx="81" cy="315" r="4.5" fill="hsl(145.17600000000039 62% 42%)"/><polygon points="387,485.64 391.5,473.03999999999996 391.5,471.23999999999995 382.5,471.23999999999995 382.5,473.03999999999996" fill="hsl(282.6840000000002 62% 42%)"/><circle cx="423" cy="459" r="4.5" fill="hsl(282.6840000000002 62% 42%)"/><polygon points="477,18.36 472.5,30.96 472.5,32.76 481.5,32.76 481.5,30.96" fill="hsl(60.19200000000001 62% 42%)"/><circle cx="495" cy="27" r="4.5" fill="hsl(60.19200000000001 62% 42%)"/><polygon points="557.64,207 545.04,202.5 543.24,202.5 543.24,211.5 545.04,211.5" fill="hsl(197.70000000000027 62% 42%)"/><circle cx="531" cy="207" r="4.5" fill="hsl(197.70000000000027 62% 42%)"/><polygon points="531,108.36 526.5,120.96 526.5,122.75999999999999 535.5,122.75999999999999 535.5,120.96" fill="hsl(335.2080000000001 62% 42%)"/><circle cx="549" cy="117" r="4.5" fill="hsl(335.2080000000001 62% 42%)"/><polygon points="351,18.36 346.5,30.96 346.5,32.76 355.5,32.76 355.5,30.96" fill="hsl(112.71600000000035 62% 42%)"/><circle cx="351" cy="81" r="4.5" fill="hsl(112.71600000000035 62% 42%)"/><polygon points="405,521.64 409.5,509.03999999999996 409.5,507.23999999999995 400.5,507.23999999999995 400.5,509.03999999999996" fill="hsl(250.22400000000016 62% 42%)"/><circle cx="423" cy="477" r="4.5" fill="hsl(250.22400000000016 62% 42%)"/><polygon points="503.64,225 491.03999999999996,220.5 489.23999999999995,220.5 489.23999999999995,229.5 491.03999999999996,229.5" fill="hsl(27.732000000000426 62% 42%)"/><circle cx="441" cy="225" r="4.5" fill="hsl(27.732000000000426 62% 42%)"/><polygon points="485.64,315 473.03999999999996,310.5 471.23999999999995,310.5 471.23999999999995,319.5 473.03999999999996,319.5" fill="hsl(165.2400000000007 62% 42%)"/><circle cx="441" cy="333" r="4.5" fill="hsl(165.2400000000007 62% 42%)"/><polygon points="27,18.36 22.5,30.96 22.5,32.76 31.5,32.76 31.5,30.96" fill="hsl(302.7480000000005 62% 42%)"/><circle cx="45" cy="27" r="4.5" fill="hsl(302.7480000000005 62% 42%)"/><polygon points="153,557.64 157.5,545.04 157.5,543.24 148.5,543.24 148.5,545.04" fill="hsl(80.25600000000031 62% 42%)"/><circle cx="153" cy="495" r="4.5" fill="hsl(80.25600000000031 62% 42%)"/><polygon points="521.64,261 509.03999999999996,256.5 507.23999999999995,256.5 507.23999999999995,265.5 509.03999999999996,265.5" fill="hsl(217.76400000000012 62% 42%)"/><circle cx="477" cy="243" r="4.5" fill="hsl(217.76400000000012 62% 42%)"/><polygon points="315,557.64 319.5,545.04 319.5,543.24 310.5,543.24 310.5,545.04" fill="hsl(355.27199999999993 62% 42%)"/><circle cx="315" cy="495" r="4.5" fill="hsl(355.27199999999993 62% 42%)"/><polygon points="557.64,423 545.04,418.5 543.24,418.5 543.24,427.5 545.04,427.5" fill="hsl(132.78000000000065 62% 42%)"/><circle cx="495" cy="423" r="4.5" fill="hsl(132.78000000000065 62% 42%)"/><polygon points="54.36,549 66.96,553.5 68.75999999999999,553.5 68.75999999999999,544.5 66.96,544.5" fill="hsl(270.28800000000047 62% 42%)"/><circle cx="99" cy="531" r="4.5" fill="hsl(270.28800000000047 62% 42%)"/><polygon points="99,18.36 94.5,30.96 94.5,32.76 103.5,32.76 103.5,30.96" fill="hsl(47.79600000000028 62% 42%)"/><circle cx="117" cy="27" r="4.5" fill="hsl(47.79600000000028 62% 42%)"/><polygon points="539.64,531 527.04,526.5 525.24,526.5 525.24,535.5 527.04,535.5" fill="hsl(185.3040000000001 62% 42%)"/><circle cx="531" cy="549" r="4.5" fill="hsl(185.3040000000001 62% 42%)"/><polygon points="333,557.64 337.5,545.04 337.5,543.24 328.5,543.24 328.5,545.04" fill="hsl(322.8120000000008 62% 42%)"/><circle cx="333" cy="495" r="4.5" fill="hsl(322.8120000000008 62% 42%)"/><polygon points="171,557.64 175.5,545.04 175.5,543.24 166.5,543.24 166.5,545.04" fill="hsl(100.32000000000062 62% 42%)"/><circle cx="171" cy="495" r="4.5" fill="hsl(100.32000000000062 62% 42%)"/><polygon points="405,18.36 400.5,30.96 400.5,32.76 409.5,32.76 409.5,30.96" fill="hsl(237.82800000000043 62% 42%)"/><circle cx="405" cy="81" r="4.5" fill="hsl(237.82800000000043 62% 42%)"/><polygon points="189,18.36 184.5,30.96 184.5,32.76 193.5,32.76 193.5,30.96" fill="hsl(15.33600000000024 62% 42%)"/><circle cx="189" cy="81" r="4.5" fill="hsl(15.33600000000024 62% 42%)"/><polygon points="18.36,423 30.96,427.5 32.76,427.5 32.76,418.5 30.96,418.5" fill="hsl(152.84400000000005 62% 42%)"/><circle cx="81" cy="423" r="4.5" fill="hsl(152.84400000000005 62% 42%)"/><polygon points="18.36,369 30.96,373.5 32.76,373.5 32.76,364.5 30.96,364.5" fill="hsl(290.35200000000077 62% 42%)"/><circle cx="27" cy="351" r="4.5" fill="hsl(290.35200000000077 62% 42%)"/><polygon points="189,90.36 184.5,102.96 184.5,104.75999999999999 193.5,104.75999999999999 193.5,102.96" fill="hsl(67.86000000000058 62% 42%)"/><circle cx="153" cy="117" r="4.5" fill="hsl(67.86000000000058 62% 42%)"/><polygon points="477,557.64 481.5,545.04 481.5,543.24 472.5,543.24 472.5,545.04" fill="hsl(205.3680000000004 62% 42%)"/><circle cx="495" cy="549" r="4.5" fill="hsl(205.3680000000004 62% 42%)"/><polygon points="18.36,405 30.96,409.5 32.76,409.5 32.76,400.5 30.96,400.5" fill="hsl(342.8760000000002 62% 42%)"/><circle cx="27" cy="387" r="4.5" fill="hsl(342.8760000000002 62% 42%)"/><polygon points="54.36,531 66.96,535.5 68.75999999999999,535.5 68.75999999999999,526.5 66.96,526.5" fill="hsl(120.38400000000001 62% 42%)"/><circle cx="81" cy="495" r="4.5" fill="hsl(120.38400000000001 62% 42%)"/><polygon points="315,485.64 319.5,473.03999999999996 319.5,471.23999999999995 310.5,471.23999999999995 310.5,473.03999999999996" fill="hsl(257.89200000000073 62% 42%)"/><circle cx="279" cy="459" r="4.5" fill="hsl(257.89200000000073 62% 42%)"/><polygon points="423,18.36 418.5,30.96 418.5,32.76 427.5,32.76 427.5,30.96" fill="hsl(35.400000000000546 62% 42%)"/><circle cx="423" cy="81" r="4.5" fill="hsl(35.400000000000546 62% 42%)"/><polygon points="477,54.36 472.5,66.96 472.5,68.75999999999999 481.5,68.75999999999999 481.5,66.96" fill="hsl(172.90800000000036 62% 42%)"/><circle cx="495" cy="63" r="4.5" fill="hsl(172.90800000000036 62% 42%)"/><polygon points="45,521.64 49.5,509.03999999999996 49.5,507.23999999999995 40.5,507.23999999999995 40.5,509.03999999999996" fill="hsl(310.41600000000017 62% 42%)"/><circle cx="27" cy="513" r="4.5" fill="hsl(310.41600000000017 62% 42%)"/><polygon points="369,557.64 373.5,545.04 373.5,543.24 364.5,543.24 364.5,545.04" fill="hsl(87.92400000000089 62% 42%)"/><circle cx="351" cy="513" r="4.5" fill="hsl(87.92400000000089 62% 42%)"/><polygon points="557.64,405 545.04,400.5 543.24,400.5 543.24,409.5 545.04,409.5" fill="hsl(225.4320000000007 62% 42%)"/><circle cx="513" cy="387" r="4.5" fill="hsl(225.4320000000007 62% 42%)"/><polygon points="225,18.36 220.5,30.96 220.5,32.76 229.5,32.76 229.5,30.96" fill="hsl(2.9400000000005093 62% 42%)"/><circle cx="243" cy="27" r="4.5" fill="hsl(2.9400000000005093 62% 42%)"/><polygon points="225,54.36 220.5,66.96 220.5,68.75999999999999 229.5,68.75999999999999 229.5,66.96" fill="hsl(140.44800000000032 62% 42%)"/><circle cx="243" cy="63" r="4.5" fill="hsl(140.44800000000032 62% 42%)"/><polygon points="431.64,225 419.03999999999996,220.5 417.23999999999995,220.5 417.23999999999995,229.5 419.03999999999996,229.5" fill="hsl(277.95600000000013 62% 42%)"/><circle cx="369" cy="225" r="4.5" fill="hsl(277.95600000000013 62% 42%)"/><polygon points="27,54.36 22.5,66.96 22.5,68.75999999999999 31.5,68.75999999999999 31.5,66.96" fill="hsl(55.46400000000085 62% 42%)"/><circle cx="27" cy="117" r="4.5" fill="hsl(55.46400000000085 62% 42%)"/><polygon points="27,485.64 31.5,473.03999999999996 31.5,471.23999999999995 22.5,471.23999999999995 22.5,473.03999999999996" fill="hsl(192.97200000000066 62% 42%)"/><circle cx="45" cy="477" r="4.5" fill="hsl(192.97200000000066 62% 42%)"/><polygon points="72.36,459 84.96,463.5 86.75999999999999,463.5 86.75999999999999,454.5 84.96,454.5" fill="hsl(330.4800000000014 62% 42%)"/><circle cx="81" cy="477" r="4.5" fill="hsl(330.4800000000014 62% 42%)"/><polygon points="459,18.36 454.5,30.96 454.5,32.76 463.5,32.76 463.5,30.96" fill="hsl(107.9880000000012 62% 42%)"/><circle cx="459" cy="81" r="4.5" fill="hsl(107.9880000000012 62% 42%)"/><polygon points="54.36,387 66.96,391.5 68.75999999999999,391.5 68.75999999999999,382.5 66.96,382.5" fill="hsl(245.496000000001 62% 42%)"/><circle cx="63" cy="405" r="4.5" fill="hsl(245.496000000001 62% 42%)"/><polygon points="189,126.36 184.5,138.96 184.5,140.76000000000002 193.5,140.76000000000002 193.5,138.96" fill="hsl(23.004000000000815 62% 42%)"/><circle cx="207" cy="171" r="4.5" fill="hsl(23.004000000000815 62% 42%)"/><polygon points="387,449.64 391.5,437.03999999999996 391.5,435.23999999999995 382.5,435.23999999999995 382.5,437.03999999999996" fill="hsl(160.51200000000063 62% 42%)"/><circle cx="351" cy="423" r="4.5" fill="hsl(160.51200000000063 62% 42%)"/><polygon points="459,90.36 454.5,102.96 454.5,104.75999999999999 463.5,104.75999999999999 463.5,102.96" fill="hsl(298.02000000000044 62% 42%)"/><circle cx="459" cy="153" r="4.5" fill="hsl(298.02000000000044 62% 42%)"/><polygon points="485.64,423 473.03999999999996,418.5 471.23999999999995,418.5 471.23999999999995,427.5 473.03999999999996,427.5" fill="hsl(75.52800000000025 62% 42%)"/><circle cx="423" cy="423" r="4.5" fill="hsl(75.52800000000025 62% 42%)"/><polygon points="513,521.64 517.5,509.03999999999996 517.5,507.23999999999995 508.5,507.23999999999995 508.5,509.03999999999996" fill="hsl(213.03600000000006 62% 42%)"/><circle cx="531" cy="513" r="4.5" fill="hsl(213.03600000000006 62% 42%)"/><polygon points="549,54.36 544.5,66.96 544.5,68.75999999999999 553.5,68.75999999999999 553.5,66.96" fill="hsl(350.54399999999987 62% 42%)"/><circle cx="549" cy="81" r="4.5" fill="hsl(350.54399999999987 62% 42%)"/><polygon points="333,485.64 337.5,473.03999999999996 337.5,471.23999999999995 328.5,471.23999999999995 328.5,473.03999999999996" fill="hsl(128.0520000000015 62% 42%)"/><circle cx="315" cy="441" r="4.5" fill="hsl(128.0520000000015 62% 42%)"/><polygon points="63,521.64 67.5,509.03999999999996 67.5,507.23999999999995 58.5,507.23999999999995 58.5,509.03999999999996" fill="hsl(265.5600000000013 62% 42%)"/><circle cx="63" cy="477" r="4.5" fill="hsl(265.5600000000013 62% 42%)"/><polygon points="36.36,99 48.96,103.5 50.76,103.5 50.76,94.5 48.96,94.5" fill="hsl(43.06800000000112 62% 42%)"/><circle cx="45" cy="81" r="4.5" fill="hsl(43.06800000000112 62% 42%)"/><polygon points="36.36,117 48.96,121.5 50.76,121.5 50.76,112.5 48.96,112.5" fill="hsl(180.57600000000093 62% 42%)"/><circle cx="63" cy="153" r="4.5" fill="hsl(180.57600000000093 62% 42%)"/><polygon points="207,557.64 211.5,545.04 211.5,543.24 202.5,543.24 202.5,545.04" fill="hsl(318.08400000000074 62% 42%)"/><circle cx="189" cy="513" r="4.5" fill="hsl(318.08400000000074 62% 42%)"/><polygon points="387,18.36 382.5,30.96 382.5,32.76 391.5,32.76 391.5,30.96" fill="hsl(95.59200000000055 62% 42%)"/><circle cx="387" cy="81" r="4.5" fill="hsl(95.59200000000055 62% 42%)"/><polygon points="99,54.36 94.5,66.96 94.5,68.75999999999999 103.5,68.75999999999999 103.5,66.96" fill="hsl(233.10000000000036 62% 42%)"/><circle cx="81" cy="99" r="4.5" fill="hsl(233.10000000000036 62% 42%)"/><polygon points="531,485.64 535.5,473.03999999999996 535.5,471.23999999999995 526.5,471.23999999999995 526.5,473.03999999999996" fill="hsl(10.608000000000175 62% 42%)"/><circle cx="549" cy="477" r="4.5" fill="hsl(10.608000000000175 62% 42%)"/><polygon points="117,557.64 121.5,545.04 121.5,543.24 112.5,543.24 112.5,545.04" fill="hsl(148.11599999999999 62% 42%)"/><circle cx="135" cy="549" r="4.5" fill="hsl(148.11599999999999 62% 42%)"/><polygon points="387,90.36 382.5,102.96 382.5,104.75999999999999 391.5,104.75999999999999 391.5,102.96" fill="hsl(285.6240000000016 62% 42%)"/><circle cx="351" cy="117" r="4.5" fill="hsl(285.6240000000016 62% 42%)"/><polygon points="477,90.36 472.5,102.96 472.5,104.75999999999999 481.5,104.75999999999999 481.5,102.96" fill="hsl(63.132000000001426 62% 42%)"/><circle cx="495" cy="99" r="4.5" fill="hsl(63.132000000001426 62% 42%)"/><polygon points="279,18.36 274.5,30.96 274.5,32.76 283.5,32.76 283.5,30.96" fill="hsl(200.64000000000124 62% 42%)"/><circle cx="279" cy="81" r="4.5" fill="hsl(200.64000000000124 62% 42%)"/><polygon points="557.64,297 545.04,292.5 543.24,292.5 543.24,301.5 545.04,301.5" fill="hsl(338.14800000000105 62% 42%)"/><circle cx="495" cy="297" r="4.5" fill="hsl(338.14800000000105 62% 42%)"/><polygon points="54.36,369 66.96,373.5 68.75999999999999,373.5 68.75999999999999,364.5 66.96,364.5" fill="hsl(115.65600000000086 62% 42%)"/><circle cx="99" cy="387" r="4.5" fill="hsl(115.65600000000086 62% 42%)"/><polygon points="225,557.64 229.5,545.04 229.5,543.24 220.5,543.24 220.5,545.04" fill="hsl(253.16400000000067 62% 42%)"/><circle cx="225" cy="495" r="4.5" fill="hsl(253.16400000000067 62% 42%)"/><polygon points="495,521.64 499.5,509.03999999999996 499.5,507.23999999999995 490.5,507.23999999999995 490.5,509.03999999999996" fill="hsl(30.67200000000048 62% 42%)"/><circle cx="477" cy="513" r="4.5" fill="hsl(30.67200000000048 62% 42%)"/><polygon points="531,144.36 526.5,156.96 526.5,158.76000000000002 535.5,158.76000000000002 535.5,156.96" fill="hsl(168.1800000000003 62% 42%)"/><circle cx="495" cy="171" r="4.5" fill="hsl(168.1800000000003 62% 42%)"/><polygon points="503.64,207 491.03999999999996,202.5 489.23999999999995,202.5 489.23999999999995,211.5 491.03999999999996,211.5" fill="hsl(305.6880000000001 62% 42%)"/><circle cx="441" cy="207" r="4.5" fill="hsl(305.6880000000001 62% 42%)"/><polygon points="477,485.64 481.5,473.03999999999996 481.5,471.23999999999995 472.5,471.23999999999995 472.5,473.03999999999996" fill="hsl(83.19600000000173 62% 42%)"/><circle cx="441" cy="459" r="4.5" fill="hsl(83.19600000000173 62% 42%)"/><polygon points="467.64,513 455.03999999999996,508.5 453.23999999999995,508.5 453.23999999999995,517.5 455.03999999999996,517.5" fill="hsl(220.70400000000154 62% 42%)"/><circle cx="423" cy="495" r="4.5" fill="hsl(220.70400000000154 62% 42%)"/><polygon points="351,557.64 355.5,545.04 355.5,543.24 346.5,543.24 346.5,545.04" fill="hsl(358.21200000000135 62% 42%)"/><circle cx="351" cy="531" r="4.5" fill="hsl(358.21200000000135 62% 42%)"/><polygon points="153,485.64 157.5,473.03999999999996 157.5,471.23999999999995 148.5,471.23999999999995 148.5,473.03999999999996" fill="hsl(135.72000000000116 62% 42%)"/><circle cx="117" cy="459" r="4.5" fill="hsl(135.72000000000116 62% 42%)"/><polygon points="261,90.36 256.5,102.96 256.5,104.75999999999999 265.5,104.75999999999999 265.5,102.96" fill="hsl(273.228000000001 62% 42%)"/><circle cx="279" cy="99" r="4.5" fill="hsl(273.228000000001 62% 42%)"/><polygon points="359.64,225 347.03999999999996,220.5 345.23999999999995,220.5 345.23999999999995,229.5 347.03999999999996,229.5" fill="hsl(50.736000000000786 62% 42%)"/><circle cx="315" cy="243" r="4.5" fill="hsl(50.736000000000786 62% 42%)"/><polygon points="449.64,99 437.03999999999996,94.5 435.23999999999995,94.5 435.23999999999995,103.5 437.03999999999996,103.5" fill="hsl(188.2440000000006 62% 42%)"/><circle cx="405" cy="117" r="4.5" fill="hsl(188.2440000000006 62% 42%)"/><polygon points="557.64,279 545.04,274.5 543.24,274.5 543.24,283.5 545.04,283.5" fill="hsl(325.7520000000004 62% 42%)"/><circle cx="495" cy="279" r="4.5" fill="hsl(325.7520000000004 62% 42%)"/><polygon points="495,126.36 490.5,138.96 490.5,140.76000000000002 499.5,140.76000000000002 499.5,138.96" fill="hsl(103.26000000000022 62% 42%)"/><circle cx="513" cy="135" r="4.5" fill="hsl(103.26000000000022 62% 42%)"/><polygon points="225,90.36 220.5,102.96 220.5,104.75999999999999 229.5,104.75999999999999 229.5,102.96" fill="hsl(240.76800000000003 62% 42%)"/><circle cx="207" cy="135" r="4.5" fill="hsl(240.76800000000003 62% 42%)"/><polygon points="171,18.36 166.5,30.96 166.5,32.76 175.5,32.76 175.5,30.96" fill="hsl(18.27600000000166 62% 42%)"/><circle cx="135" cy="45" r="4.5" fill="hsl(18.27600000000166 62% 42%)"/><polygon points="557.64,351 545.04,346.5 543.24,346.5 543.24,355.5 545.04,355.5" fill="hsl(155.78400000000147 62% 42%)"/><circle cx="531" cy="369" r="4.5" fill="hsl(155.78400000000147 62% 42%)"/><polygon points="521.64,459 509.03999999999996,454.5 507.23999999999995,454.5 507.23999999999995,463.5 509.03999999999996,463.5" fill="hsl(293.2920000000013 62% 42%)"/><circle cx="513" cy="477" r="4.5" fill="hsl(293.2920000000013 62% 42%)"/><polygon points="557.64,441 545.04,436.5 543.24,436.5 543.24,445.5 545.04,445.5" fill="hsl(70.80000000000109 62% 42%)"/><circle cx="495" cy="441" r="4.5" fill="hsl(70.80000000000109 62% 42%)"/><polygon points="351,503.64 355.5,491.03999999999996 355.5,489.23999999999995 346.5,489.23999999999995 346.5,491.03999999999996" fill="hsl(208.3080000000009 62% 42%)"/><circle cx="369" cy="495" r="4.5" fill="hsl(208.3080000000009 62% 42%)"/><polygon points="387,413.64 391.5,401.03999999999996 391.5,399.23999999999995 382.5,399.23999999999995 382.5,401.03999999999996" fill="hsl(345.8160000000007 62% 42%)"/><circle cx="369" cy="369" r="4.5" fill="hsl(345.8160000000007 62% 42%)"/><polygon points="243,557.64 247.5,545.04 247.5,543.24 238.5,543.24 238.5,545.04" fill="hsl(123.32400000000052 62% 42%)"/><circle cx="279" cy="531" r="4.5" fill="hsl(123.32400000000052 62% 42%)"/><polygon points="45,305.64 49.5,293.03999999999996 49.5,291.23999999999995 40.5,291.23999999999995 40.5,293.03999999999996" fill="hsl(260.83200000000033 62% 42%)"/><circle cx="27" cy="297" r="4.5" fill="hsl(260.83200000000033 62% 42%)"/><polygon points="521.64,405 509.03999999999996,400.5 507.23999999999995,400.5 507.23999999999995,409.5 509.03999999999996,409.5" fill="hsl(38.340000000000146 62% 42%)"/><circle cx="477" cy="387" r="4.5" fill="hsl(38.340000000000146 62% 42%)"/><polygon points="108.36,387 120.96,391.5 122.75999999999999,391.5 122.75999999999999,382.5 120.96,382.5" fill="hsl(175.84800000000178 62% 42%)"/><circle cx="135" cy="423" r="4.5" fill="hsl(175.84800000000178 62% 42%)"/><polygon points="369,18.36 364.5,30.96 364.5,32.76 373.5,32.76 373.5,30.96" fill="hsl(313.3560000000016 62% 42%)"/><circle cx="369" cy="81" r="4.5" fill="hsl(313.3560000000016 62% 42%)"/><polygon points="261,126.36 256.5,138.96 256.5,140.76000000000002 265.5,140.76000000000002 265.5,138.96" fill="hsl(90.8640000000014 62% 42%)"/><circle cx="279" cy="135" r="4.5" fill="hsl(90.8640000000014 62% 42%)"/><polygon points="117,54.36 112.5,66.96 112.5,68.75999999999999 121.5,68.75999999999999 121.5,66.96" fill="hsl(228.3720000000012 62% 42%)"/><circle cx="99" cy="99" r="4.5" fill="hsl(228.3720000000012 62% 42%)"/><polygon points="423,108.36 418.5,120.96 418.5,122.75999999999999 427.5,122.75999999999999 427.5,120.96" fill="hsl(5.880000000001019 62% 42%)"/><circle cx="387" cy="135" r="4.5" fill="hsl(5.880000000001019 62% 42%)"/><polygon points="162.36,459 174.96,463.5 176.76000000000002,463.5 176.76000000000002,454.5 174.96,454.5" fill="hsl(143.38800000000083 62% 42%)"/><circle cx="189" cy="459" r="4.5" fill="hsl(143.38800000000083 62% 42%)"/><polygon points="63,18.36 58.5,30.96 58.5,32.76 67.5,32.76 67.5,30.96" fill="hsl(280.89600000000064 62% 42%)"/><circle cx="81" cy="27" r="4.5" fill="hsl(280.89600000000064 62% 42%)"/><polygon points="54.36,297 66.96,301.5 68.75999999999999,301.5 68.75999999999999,292.5 66.96,292.5" fill="hsl(58.40400000000045 62% 42%)"/><circle cx="99" cy="315" r="4.5" fill="hsl(58.40400000000045 62% 42%)"/><polygon points="117,108.36 112.5,120.96 112.5,122.75999999999999 121.5,122.75999999999999 121.5,120.96" fill="hsl(195.91200000000026 62% 42%)"/><circle cx="99" cy="153" r="4.5" fill="hsl(195.91200000000026 62% 42%)"/><polygon points="108.36,315 120.96,319.5 122.75999999999999,319.5 122.75999999999999,310.5 120.96,310.5" fill="hsl(333.4200000000019 62% 42%)"/><circle cx="135" cy="351" r="4.5" fill="hsl(333.4200000000019 62% 42%)"/><polygon points="513,324.36 508.5,336.96000000000004 508.5,338.76000000000005 517.5,338.76000000000005 517.5,336.96000000000004" fill="hsl(110.9280000000017 62% 42%)"/><circle cx="513" cy="369" r="4.5" fill="hsl(110.9280000000017 62% 42%)"/><polygon points="341.64,45 329.03999999999996,40.5 327.23999999999995,40.5 327.23999999999995,49.5 329.03999999999996,49.5" fill="hsl(248.4360000000015 62% 42%)"/><circle cx="333" cy="27" r="4.5" fill="hsl(248.4360000000015 62% 42%)"/><polygon points="557.64,333 545.04,328.5 543.24,328.5 543.24,337.5 545.04,337.5" fill="hsl(25.944000000001324 62% 42%)"/><circle cx="531" cy="333" r="4.5" fill="hsl(25.944000000001324 62% 42%)"/><polygon points="467.64,477 455.03999999999996,472.5 453.23999999999995,472.5 453.23999999999995,481.5 455.03999999999996,481.5" fill="hsl(163.45200000000114 62% 42%)"/><circle cx="459" cy="495" r="4.5" fill="hsl(163.45200000000114 62% 42%)"/><polygon points="54.36,207 66.96,211.5 68.75999999999999,211.5 68.75999999999999,202.5 66.96,202.5" fill="hsl(300.96000000000276 62% 42%)"/><circle cx="81" cy="243" r="4.5" fill="hsl(300.96000000000276 62% 42%)"/><polygon points="467.64,405 455.03999999999996,400.5 453.23999999999995,400.5 453.23999999999995,409.5 455.03999999999996,409.5" fill="hsl(78.46800000000076 62% 42%)"/><circle cx="405" cy="405" r="4.5" fill="hsl(78.46800000000076 62% 42%)"/><polygon points="153,449.64 157.5,437.03999999999996 157.5,435.23999999999995 148.5,435.23999999999995 148.5,437.03999999999996" fill="hsl(215.9760000000024 62% 42%)"/><circle cx="153" cy="387" r="4.5" fill="hsl(215.9760000000024 62% 42%)"/><polygon points="477,126.36 472.5,138.96 472.5,140.76000000000002 481.5,140.76000000000002 481.5,138.96" fill="hsl(353.4840000000004 62% 42%)"/><circle cx="477" cy="153" r="4.5" fill="hsl(353.4840000000004 62% 42%)"/><polygon points="54.36,189 66.96,193.5 68.75999999999999,193.5 68.75999999999999,184.5 66.96,184.5" fill="hsl(130.992000000002 62% 42%)"/><circle cx="99" cy="207" r="4.5" fill="hsl(130.992000000002 62% 42%)"/><polygon points="485.64,279 473.03999999999996,274.5 471.23999999999995,274.5 471.23999999999995,283.5 473.03999999999996,283.5" fill="hsl(268.5 62% 42%)"/><circle cx="477" cy="297" r="4.5" fill="hsl(268.5 62% 42%)"/><polygon points="423,144.36 418.5,156.96 418.5,158.76000000000002 427.5,158.76000000000002 427.5,156.96" fill="hsl(46.00800000000163 62% 42%)"/><circle cx="423" cy="207" r="4.5" fill="hsl(46.00800000000163 62% 42%)"/><polygon points="405,449.64 409.5,437.03999999999996 409.5,435.23999999999995 400.5,435.23999999999995 400.5,437.03999999999996" fill="hsl(183.51599999999962 62% 42%)"/><circle cx="405" cy="423" r="4.5" fill="hsl(183.51599999999962 62% 42%)"/><polygon points="207,503.64 211.5,491.03999999999996 211.5,489.23999999999995 202.5,489.23999999999995 202.5,491.03999999999996" fill="hsl(321.02400000000125 62% 42%)"/><circle cx="225" cy="459" r="4.5" fill="hsl(321.02400000000125 62% 42%)"/><polygon points="117,162.36 112.5,174.96 112.5,176.76000000000002 121.5,176.76000000000002 121.5,174.96" fill="hsl(98.53200000000288 62% 42%)"/><circle cx="153" cy="189" r="4.5" fill="hsl(98.53200000000288 62% 42%)"/><polygon points="377.64,405 365.03999999999996,400.5 363.23999999999995,400.5 363.23999999999995,409.5 365.03999999999996,409.5" fill="hsl(236.04000000000087 62% 42%)"/><circle cx="333" cy="423" r="4.5" fill="hsl(236.04000000000087 62% 42%)"/><polygon points="99,521.64 103.5,509.03999999999996 103.5,507.23999999999995 94.5,507.23999999999995 94.5,509.03999999999996" fill="hsl(13.548000000002503 62% 42%)"/><circle cx="135" cy="495" r="4.5" fill="hsl(13.548000000002503 62% 42%)"/><polygon points="405,144.36 400.5,156.96 400.5,158.76000000000002 409.5,158.76000000000002 409.5,156.96" fill="hsl(151.0560000000005 62% 42%)"/><circle cx="405" cy="207" r="4.5" fill="hsl(151.0560000000005 62% 42%)"/><polygon points="467.64,243 455.03999999999996,238.5 453.23999999999995,238.5 453.23999999999995,247.5 455.03999999999996,247.5" fill="hsl(288.5640000000021 62% 42%)"/><circle cx="405" cy="243" r="4.5" fill="hsl(288.5640000000021 62% 42%)"/><polygon points="108.36,297 120.96,301.5 122.75999999999999,301.5 122.75999999999999,292.5 120.96,292.5" fill="hsl(66.07200000000012 62% 42%)"/><circle cx="153" cy="315" r="4.5" fill="hsl(66.07200000000012 62% 42%)"/><polygon points="162.36,387 174.96,391.5 176.76000000000002,391.5 176.76000000000002,382.5 174.96,382.5" fill="hsl(203.58000000000175 62% 42%)"/><circle cx="171" cy="405" r="4.5" fill="hsl(203.58000000000175 62% 42%)"/><polygon points="243,90.36 238.5,102.96 238.5,104.75999999999999 247.5,104.75999999999999 247.5,102.96" fill="hsl(341.08799999999974 62% 42%)"/><circle cx="225" cy="135" r="4.5" fill="hsl(341.08799999999974 62% 42%)"/><polygon points="333,395.64 337.5,383.03999999999996 337.5,381.23999999999995 328.5,381.23999999999995 328.5,383.03999999999996" fill="hsl(118.59600000000137 62% 42%)"/><circle cx="351" cy="369" r="4.5" fill="hsl(118.59600000000137 62% 42%)"/><polygon points="297,162.36 292.5,174.96 292.5,176.76000000000002 301.5,176.76000000000002 301.5,174.96" fill="hsl(256.104000000003 62% 42%)"/><circle cx="297" cy="225" r="4.5" fill="hsl(256.104000000003 62% 42%)"/><polygon points="333,54.36 328.5,66.96 328.5,68.75999999999999 337.5,68.75999999999999 337.5,66.96" fill="hsl(33.61200000000099 62% 42%)"/><circle cx="315" cy="63" r="4.5" fill="hsl(33.61200000000099 62% 42%)"/><polygon points="485.64,441 473.03999999999996,436.5 471.23999999999995,436.5 471.23999999999995,445.5 473.03999999999996,445.5" fill="hsl(171.12000000000262 62% 42%)"/><circle cx="423" cy="441" r="4.5" fill="hsl(171.12000000000262 62% 42%)"/><polygon points="503.64,351 491.03999999999996,346.5 489.23999999999995,346.5 489.23999999999995,355.5 491.03999999999996,355.5" fill="hsl(308.6280000000006 62% 42%)"/><circle cx="477" cy="369" r="4.5" fill="hsl(308.6280000000006 62% 42%)"/><polygon points="287.64,225 275.03999999999996,220.5 273.23999999999995,220.5 273.23999999999995,229.5 275.03999999999996,229.5" fill="hsl(86.13600000000224 62% 42%)"/><circle cx="279" cy="243" r="4.5" fill="hsl(86.13600000000224 62% 42%)"/><polygon points="459,162.36 454.5,174.96 454.5,176.76000000000002 463.5,176.76000000000002 463.5,174.96" fill="hsl(223.64400000000023 62% 42%)"/><circle cx="441" cy="171" r="4.5" fill="hsl(223.64400000000023 62% 42%)"/><polygon points="323.64,405 311.03999999999996,400.5 309.23999999999995,400.5 309.23999999999995,409.5 311.03999999999996,409.5" fill="hsl(1.1520000000018626 62% 42%)"/><circle cx="261" cy="405" r="4.5" fill="hsl(1.1520000000018626 62% 42%)"/><polygon points="503.64,333 491.03999999999996,328.5 489.23999999999995,328.5 489.23999999999995,337.5 491.03999999999996,337.5" fill="hsl(138.65999999999985 62% 42%)"/><circle cx="459" cy="351" r="4.5" fill="hsl(138.65999999999985 62% 42%)"/><polygon points="395.64,207 383.03999999999996,202.5 381.23999999999995,202.5 381.23999999999995,211.5 383.03999999999996,211.5" fill="hsl(276.1680000000015 62% 42%)"/><circle cx="333" cy="207" r="4.5" fill="hsl(276.1680000000015 62% 42%)"/><polygon points="423,395.64 427.5,383.03999999999996 427.5,381.23999999999995 418.5,381.23999999999995 418.5,383.03999999999996" fill="hsl(53.676000000003114 62% 42%)"/><circle cx="405" cy="387" r="4.5" fill="hsl(53.676000000003114 62% 42%)"/><polygon points="423,359.64 427.5,347.03999999999996 427.5,345.23999999999995 418.5,345.23999999999995 418.5,347.03999999999996" fill="hsl(191.1840000000011 62% 42%)"/><circle cx="423" cy="297" r="4.5" fill="hsl(191.1840000000011 62% 42%)"/><polygon points="333,359.64 337.5,347.03999999999996 337.5,345.23999999999995 328.5,345.23999999999995 328.5,347.03999999999996" fill="hsl(328.69200000000274 62% 42%)"/><circle cx="369" cy="333" r="4.5" fill="hsl(328.69200000000274 62% 42%)"/><polygon points="377.64,441 365.03999999999996,436.5 363.23999999999995,436.5 363.23999999999995,445.5 365.03999999999996,445.5" fill="hsl(106.20000000000073 62% 42%)"/><circle cx="369" cy="459" r="4.5" fill="hsl(106.20000000000073 62% 42%)"/><polygon points="423,287.64 427.5,275.03999999999996 427.5,273.23999999999995 418.5,273.23999999999995 418.5,275.03999999999996" fill="hsl(243.70800000000236 62% 42%)"/><circle cx="405" cy="279" r="4.5" fill="hsl(243.70800000000236 62% 42%)"/><polygon points="333,323.64 337.5,311.03999999999996 337.5,309.23999999999995 328.5,309.23999999999995 328.5,311.03999999999996" fill="hsl(21.21600000000035 62% 42%)"/><circle cx="297" cy="297" r="4.5" fill="hsl(21.21600000000035 62% 42%)"/><polygon points="126.36,99 138.96,103.5 140.76000000000002,103.5 140.76000000000002,94.5 138.96,94.5" fill="hsl(158.72400000000198 62% 42%)"/><circle cx="171" cy="81" r="4.5" fill="hsl(158.72400000000198 62% 42%)"/><polygon points="413.64,315 401.03999999999996,310.5 399.23999999999995,310.5 399.23999999999995,319.5 401.03999999999996,319.5" fill="hsl(296.23199999999997 62% 42%)"/><circle cx="387" cy="351" r="4.5" fill="hsl(296.23199999999997 62% 42%)"/><polygon points="323.64,423 311.03999999999996,418.5 309.23999999999995,418.5 309.23999999999995,427.5 311.03999999999996,427.5" fill="hsl(73.7400000000016 62% 42%)"/><circle cx="261" cy="423" r="4.5" fill="hsl(73.7400000000016 62% 42%)"/><polygon points="377.64,315 365.03999999999996,310.5 363.23999999999995,310.5 363.23999999999995,319.5 365.03999999999996,319.5" fill="hsl(211.24800000000323 62% 42%)"/><circle cx="351" cy="279" r="4.5" fill="hsl(211.24800000000323 62% 42%)"/><polygon points="261,162.36 256.5,174.96 256.5,176.76000000000002 265.5,176.76000000000002 265.5,174.96" fill="hsl(348.7560000000012 62% 42%)"/><circle cx="279" cy="207" r="4.5" fill="hsl(348.7560000000012 62% 42%)"/><polygon points="495,395.64 499.5,383.03999999999996 499.5,381.23999999999995 490.5,381.23999999999995 490.5,383.03999999999996" fill="hsl(126.26400000000285 62% 42%)"/><circle cx="495" cy="369" r="4.5" fill="hsl(126.26400000000285 62% 42%)"/><polygon points="45,269.64 49.5,257.03999999999996 49.5,255.23999999999995 40.5,255.23999999999995 40.5,257.03999999999996" fill="hsl(263.77200000000084 62% 42%)"/><circle cx="27" cy="261" r="4.5" fill="hsl(263.77200000000084 62% 42%)"/><polygon points="333,90.36 328.5,102.96 328.5,104.75999999999999 337.5,104.75999999999999 337.5,102.96" fill="hsl(41.280000000002474 62% 42%)"/><circle cx="315" cy="135" r="4.5" fill="hsl(41.280000000002474 62% 42%)"/><polygon points="207,18.36 202.5,30.96 202.5,32.76 211.5,32.76 211.5,30.96" fill="hsl(178.78800000000047 62% 42%)"/><circle cx="207" cy="63" r="4.5" fill="hsl(178.78800000000047 62% 42%)"/><polygon points="405,359.64 409.5,347.03999999999996 409.5,345.23999999999995 400.5,345.23999999999995 400.5,347.03999999999996" fill="hsl(316.2960000000021 62% 42%)"/><circle cx="405" cy="333" r="4.5" fill="hsl(316.2960000000021 62% 42%)"/><polygon points="251.64,423 239.04,418.5 237.23999999999998,418.5 237.23999999999998,427.5 239.04,427.5" fill="hsl(93.80400000000009 62% 42%)"/><circle cx="207" cy="405" r="4.5" fill="hsl(93.80400000000009 62% 42%)"/><polygon points="287.64,513 275.03999999999996,508.5 273.23999999999995,508.5 273.23999999999995,517.5 275.03999999999996,517.5" fill="hsl(231.31200000000172 62% 42%)"/><circle cx="261" cy="477" r="4.5" fill="hsl(231.31200000000172 62% 42%)"/><polygon points="243,521.64 247.5,509.03999999999996 247.5,507.23999999999995 238.5,507.23999999999995 238.5,509.03999999999996" fill="hsl(8.820000000003347 62% 42%)"/><circle cx="225" cy="477" r="4.5" fill="hsl(8.820000000003347 62% 42%)"/><polygon points="305.64,441 293.03999999999996,436.5 291.23999999999995,436.5 291.23999999999995,445.5 293.03999999999996,445.5" fill="hsl(146.32800000000134 62% 42%)"/><circle cx="261" cy="459" r="4.5" fill="hsl(146.32800000000134 62% 42%)"/><polygon points="189,557.64 193.5,545.04 193.5,543.24 184.5,543.24 184.5,545.04" fill="hsl(283.83600000000297 62% 42%)"/><circle cx="189" cy="531" r="4.5" fill="hsl(283.83600000000297 62% 42%)"/><polygon points="251.64,225 239.04,220.5 237.23999999999998,220.5 237.23999999999998,229.5 239.04,229.5" fill="hsl(61.34400000000096 62% 42%)"/><circle cx="225" cy="243" r="4.5" fill="hsl(61.34400000000096 62% 42%)"/><polygon points="485.64,261 473.03999999999996,256.5 471.23999999999995,256.5 471.23999999999995,265.5 473.03999999999996,265.5" fill="hsl(198.8520000000026 62% 42%)"/><circle cx="441" cy="261" r="4.5" fill="hsl(198.8520000000026 62% 42%)"/><polygon points="315,90.36 310.5,102.96 310.5,104.75999999999999 319.5,104.75999999999999 319.5,102.96" fill="hsl(336.3600000000006 62% 42%)"/><circle cx="315" cy="117" r="4.5" fill="hsl(336.3600000000006 62% 42%)"/><polygon points="108.36,513 120.96,517.5 122.75999999999999,517.5 122.75999999999999,508.5 120.96,508.5" fill="hsl(113.86800000000221 62% 42%)"/><circle cx="135" cy="513" r="4.5" fill="hsl(113.86800000000221 62% 42%)"/><polygon points="333,287.64 337.5,275.03999999999996 337.5,273.23999999999995 328.5,273.23999999999995 328.5,275.03999999999996" fill="hsl(251.3760000000002 62% 42%)"/><circle cx="351" cy="243" r="4.5" fill="hsl(251.3760000000002 62% 42%)"/><polygon points="323.64,333 311.03999999999996,328.5 309.23999999999995,328.5 309.23999999999995,337.5 311.03999999999996,337.5" fill="hsl(28.884000000001834 62% 42%)"/><circle cx="297" cy="369" r="4.5" fill="hsl(28.884000000001834 62% 42%)"/><polygon points="549,144.36 544.5,156.96 544.5,158.76000000000002 553.5,158.76000000000002 553.5,156.96" fill="hsl(166.39200000000346 62% 42%)"/><circle cx="549" cy="171" r="4.5" fill="hsl(166.39200000000346 62% 42%)"/><polygon points="197.64,423 185.04,418.5 183.23999999999998,418.5 183.23999999999998,427.5 185.04,427.5" fill="hsl(303.90000000000146 62% 42%)"/><circle cx="189" cy="441" r="4.5" fill="hsl(303.90000000000146 62% 42%)"/><polygon points="549,395.64 553.5,383.03999999999996 553.5,381.23999999999995 544.5,381.23999999999995 544.5,383.03999999999996" fill="hsl(81.40800000000309 62% 42%)"/><circle cx="549" cy="369" r="4.5" fill="hsl(81.40800000000309 62% 42%)"/><polygon points="315,144.36 310.5,156.96 310.5,158.76000000000002 319.5,158.76000000000002 319.5,156.96" fill="hsl(218.91600000000108 62% 42%)"/><circle cx="315" cy="207" r="4.5" fill="hsl(218.91600000000108 62% 42%)"/><polygon points="162.36,297 174.96,301.5 176.76000000000002,301.5 176.76000000000002,292.5 174.96,292.5" fill="hsl(356.4240000000027 62% 42%)"/><circle cx="225" cy="297" r="4.5" fill="hsl(356.4240000000027 62% 42%)"/><polygon points="18.36,225 30.96,229.5 32.76,229.5 32.76,220.5 30.96,220.5" fill="hsl(133.9320000000007 62% 42%)"/><circle cx="63" cy="243" r="4.5" fill="hsl(133.9320000000007 62% 42%)"/><polygon points="72.36,333 84.96,337.5 86.75999999999999,337.5 86.75999999999999,328.5 84.96,328.5" fill="hsl(271.4400000000023 62% 42%)"/><circle cx="117" cy="351" r="4.5" fill="hsl(271.4400000000023 62% 42%)"/><polygon points="467.64,387 455.03999999999996,382.5 453.23999999999995,382.5 453.23999999999995,391.5 455.03999999999996,391.5" fill="hsl(48.94800000000032 62% 42%)"/><circle cx="441" cy="387" r="4.5" fill="hsl(48.94800000000032 62% 42%)"/><polygon points="279,162.36 274.5,174.96 274.5,176.76000000000002 283.5,176.76000000000002 283.5,174.96" fill="hsl(186.45600000000195 62% 42%)"/><circle cx="279" cy="189" r="4.5" fill="hsl(186.45600000000195 62% 42%)"/><polygon points="243,467.64 247.5,455.03999999999996 247.5,453.23999999999995 238.5,453.23999999999995 238.5,455.03999999999996" fill="hsl(323.9640000000036 62% 42%)"/><circle cx="207" cy="441" r="4.5" fill="hsl(323.9640000000036 62% 42%)"/><polygon points="207,72.36 202.5,84.96 202.5,86.75999999999999 211.5,86.75999999999999 211.5,84.96" fill="hsl(101.47200000000157 62% 42%)"/><circle cx="207" cy="99" r="4.5" fill="hsl(101.47200000000157 62% 42%)"/><polygon points="189,503.64 193.5,491.03999999999996 193.5,489.23999999999995 184.5,489.23999999999995 184.5,491.03999999999996" fill="hsl(238.9800000000032 62% 42%)"/><circle cx="171" cy="477" r="4.5" fill="hsl(238.9800000000032 62% 42%)"/><polygon points="162.36,189 174.96,193.5 176.76000000000002,193.5 176.76000000000002,184.5 174.96,184.5" fill="hsl(16.488000000001193 62% 42%)"/><circle cx="225" cy="189" r="4.5" fill="hsl(16.488000000001193 62% 42%)"/><polygon points="207,395.64 211.5,383.03999999999996 211.5,381.23999999999995 202.5,381.23999999999995 202.5,383.03999999999996" fill="hsl(153.99600000000282 62% 42%)"/><circle cx="171" cy="369" r="4.5" fill="hsl(153.99600000000282 62% 42%)"/><polygon points="63,287.64 67.5,275.03999999999996 67.5,273.23999999999995 58.5,273.23999999999995 58.5,275.03999999999996" fill="hsl(291.5040000000008 62% 42%)"/><circle cx="99" cy="261" r="4.5" fill="hsl(291.5040000000008 62% 42%)"/><polygon points="90.36,243 102.96,247.5 104.75999999999999,247.5 104.75999999999999,238.5 102.96,238.5" fill="hsl(69.01200000000244 62% 42%)"/><circle cx="153" cy="243" r="4.5" fill="hsl(69.01200000000244 62% 42%)"/><polygon points="315,252.36 310.5,264.96000000000004 310.5,266.76000000000005 319.5,266.76000000000005 319.5,264.96000000000004" fill="hsl(206.52000000000044 62% 42%)"/><circle cx="279" cy="279" r="4.5" fill="hsl(206.52000000000044 62% 42%)"/><polygon points="189,359.64 193.5,347.03999999999996 193.5,345.23999999999995 184.5,345.23999999999995 184.5,347.03999999999996" fill="hsl(344.02800000000207 62% 42%)"/><circle cx="171" cy="315" r="4.5" fill="hsl(344.02800000000207 62% 42%)"/><polygon points="287.64,549 275.03999999999996,544.5 273.23999999999995,544.5 273.23999999999995,553.5 275.03999999999996,553.5" fill="hsl(121.53600000000006 62% 42%)"/><circle cx="261" cy="549" r="4.5" fill="hsl(121.53600000000006 62% 42%)"/><polygon points="305.64,477 293.03999999999996,472.5 291.23999999999995,472.5 291.23999999999995,481.5 293.03999999999996,481.5" fill="hsl(259.0440000000017 62% 42%)"/><circle cx="279" cy="495" r="4.5" fill="hsl(259.0440000000017 62% 42%)"/><polygon points="144.36,333 156.96,337.5 158.76000000000002,337.5 158.76000000000002,328.5 156.96,328.5" fill="hsl(36.55200000000332 62% 42%)"/><circle cx="153" cy="351" r="4.5" fill="hsl(36.55200000000332 62% 42%)"/><polygon points="179.64,63 167.04,58.5 165.23999999999998,58.5 165.23999999999998,67.5 167.04,67.5" fill="hsl(174.0600000000013 62% 42%)"/><circle cx="135" cy="63" r="4.5" fill="hsl(174.0600000000013 62% 42%)"/><polygon points="161.64,27 149.04,22.5 147.23999999999998,22.5 147.23999999999998,31.5 149.04,31.5" fill="hsl(311.56800000000294 62% 42%)"/><circle cx="135" cy="27" r="4.5" fill="hsl(311.56800000000294 62% 42%)"/><polygon points="171,287.64 175.5,275.03999999999996 175.5,273.23999999999995 166.5,273.23999999999995 166.5,275.03999999999996" fill="hsl(89.07600000000093 62% 42%)"/><circle cx="135" cy="261" r="4.5" fill="hsl(89.07600000000093 62% 42%)"/><polygon points="234.36,297 246.96,301.5 248.76000000000002,301.5 248.76000000000002,292.5 246.96,292.5" fill="hsl(226.58400000000256 62% 42%)"/><circle cx="261" cy="261" r="4.5" fill="hsl(226.58400000000256 62% 42%)"/><polygon points="297,234.36 292.5,246.96 292.5,248.76000000000002 301.5,248.76000000000002 301.5,246.96" fill="hsl(4.092000000000553 62% 42%)"/><circle cx="279" cy="261" r="4.5" fill="hsl(4.092000000000553 62% 42%)"/><polygon points="377.64,387 365.03999999999996,382.5 363.23999999999995,382.5 363.23999999999995,391.5 365.03999999999996,391.5" fill="hsl(141.60000000000218 62% 42%)"/><circle cx="351" cy="387" r="4.5" fill="hsl(141.60000000000218 62% 42%)"/><polygon points="18.36,135 30.96,139.5 32.76,139.5 32.76,130.5 30.96,130.5" fill="hsl(279.1080000000002 62% 42%)"/><circle cx="45" cy="135" r="4.5" fill="hsl(279.1080000000002 62% 42%)"/><polygon points="395.64,261 383.03999999999996,256.5 381.23999999999995,256.5 381.23999999999995,265.5 383.03999999999996,265.5" fill="hsl(56.616000000001804 62% 42%)"/><circle cx="351" cy="261" r="4.5" fill="hsl(56.616000000001804 62% 42%)"/><polygon points="315,395.64 319.5,383.03999999999996 319.5,381.23999999999995 310.5,381.23999999999995 310.5,383.03999999999996" fill="hsl(194.12400000000343 62% 42%)"/><circle cx="315" cy="351" r="4.5" fill="hsl(194.12400000000343 62% 42%)"/><polygon points="90.36,225 102.96,229.5 104.75999999999999,229.5 104.75999999999999,220.5 102.96,220.5" fill="hsl(331.6320000000014 62% 42%)"/><circle cx="135" cy="207" r="4.5" fill="hsl(331.6320000000014 62% 42%)"/><polygon points="243,413.64 247.5,401.03999999999996 247.5,399.23999999999995 238.5,399.23999999999995 238.5,401.03999999999996" fill="hsl(109.14000000000306 62% 42%)"/><circle cx="225" cy="369" r="4.5" fill="hsl(109.14000000000306 62% 42%)"/><polygon points="171,126.36 166.5,138.96 166.5,140.76000000000002 175.5,140.76000000000002 175.5,138.96" fill="hsl(246.64800000000105 62% 42%)"/><circle cx="153" cy="171" r="4.5" fill="hsl(246.64800000000105 62% 42%)"/><polygon points="477,162.36 472.5,174.96 472.5,176.76000000000002 481.5,176.76000000000002 481.5,174.96" fill="hsl(24.156000000002678 62% 42%)"/><circle cx="495" cy="189" r="4.5" fill="hsl(24.156000000002678 62% 42%)"/><polygon points="126.36,81 138.96,85.5 140.76000000000002,85.5 140.76000000000002,76.5 138.96,76.5" fill="hsl(161.66400000000067 62% 42%)"/><circle cx="153" cy="81" r="4.5" fill="hsl(161.66400000000067 62% 42%)"/><polygon points="333,197.64 337.5,185.04 337.5,183.23999999999998 328.5,183.23999999999998 328.5,185.04" fill="hsl(299.1720000000023 62% 42%)"/><circle cx="351" cy="153" r="4.5" fill="hsl(299.1720000000023 62% 42%)"/><polygon points="387,144.36 382.5,156.96 382.5,158.76000000000002 391.5,158.76000000000002 391.5,156.96" fill="hsl(76.68000000000029 62% 42%)"/><circle cx="369" cy="189" r="4.5" fill="hsl(76.68000000000029 62% 42%)"/><polygon points="171,198.36 166.5,210.96 166.5,212.76000000000002 175.5,212.76000000000002 175.5,210.96" fill="hsl(214.18800000000192 62% 42%)"/><circle cx="189" cy="243" r="4.5" fill="hsl(214.18800000000192 62% 42%)"/><polygon points="36.36,63 48.96,67.5 50.76,67.5 50.76,58.5 48.96,58.5" fill="hsl(351.69600000000355 62% 42%)"/><circle cx="81" cy="63" r="4.5" fill="hsl(351.69600000000355 62% 42%)"/><polygon points="467.64,369 455.03999999999996,364.5 453.23999999999995,364.5 453.23999999999995,373.5 455.03999999999996,373.5" fill="hsl(129.20400000000154 62% 42%)"/><circle cx="441" cy="351" r="4.5" fill="hsl(129.20400000000154 62% 42%)"/><polygon points="90.36,405 102.96,409.5 104.75999999999999,409.5 104.75999999999999,400.5 102.96,400.5" fill="hsl(266.7120000000032 62% 42%)"/><circle cx="117" cy="423" r="4.5" fill="hsl(266.7120000000032 62% 42%)"/><polygon points="99,108.36 94.5,120.96 94.5,122.75999999999999 103.5,122.75999999999999 103.5,120.96" fill="hsl(44.220000000001164 62% 42%)"/><circle cx="99" cy="135" r="4.5" fill="hsl(44.220000000001164 62% 42%)"/><polygon points="225,413.64 229.5,401.03999999999996 229.5,399.23999999999995 220.5,399.23999999999995 220.5,401.03999999999996" fill="hsl(181.7280000000028 62% 42%)"/><circle cx="225" cy="387" r="4.5" fill="hsl(181.7280000000028 62% 42%)"/><polygon points="143.64,441 131.04,436.5 129.23999999999998,436.5 129.23999999999998,445.5 131.04,445.5" fill="hsl(319.2360000000008 62% 42%)"/><circle cx="117" cy="441" r="4.5" fill="hsl(319.2360000000008 62% 42%)"/><polygon points="207,359.64 211.5,347.03999999999996 211.5,345.23999999999995 202.5,345.23999999999995 202.5,347.03999999999996" fill="hsl(96.74400000000242 62% 42%)"/><circle cx="225" cy="315" r="4.5" fill="hsl(96.74400000000242 62% 42%)"/><polygon points="225,359.64 229.5,347.03999999999996 229.5,345.23999999999995 220.5,345.23999999999995 220.5,347.03999999999996" fill="hsl(234.2520000000004 62% 42%)"/><circle cx="261" cy="333" r="4.5" fill="hsl(234.2520000000004 62% 42%)"/><polygon points="207,287.64 211.5,275.03999999999996 211.5,273.23999999999995 202.5,273.23999999999995 202.5,275.03999999999996" fill="hsl(11.760000000002037 62% 42%)"/><circle cx="189" cy="279" r="4.5" fill="hsl(11.760000000002037 62% 42%)"/><polygon points="72.36,279 84.96,283.5 86.75999999999999,283.5 86.75999999999999,274.5 84.96,274.5" fill="hsl(149.26800000000367 62% 42%)"/><circle cx="117" cy="261" r="4.5" fill="hsl(149.26800000000367 62% 42%)"/><polygon points="135,108.36 130.5,120.96 130.5,122.75999999999999 139.5,122.75999999999999 139.5,120.96" fill="hsl(286.77600000000166 62% 42%)"/><circle cx="153" cy="153" r="4.5" fill="hsl(286.77600000000166 62% 42%)"/><polygon points="323.64,315 311.03999999999996,310.5 309.23999999999995,310.5 309.23999999999995,319.5 311.03999999999996,319.5" fill="hsl(64.28400000000329 62% 42%)"/><circle cx="297" cy="315" r="4.5" fill="hsl(64.28400000000329 62% 42%)"/><polygon points="395.64,243 383.03999999999996,238.5 381.23999999999995,238.5 381.23999999999995,247.5 383.03999999999996,247.5" fill="hsl(201.79200000000128 62% 42%)"/><circle cx="369" cy="243" r="4.5" fill="hsl(201.79200000000128 62% 42%)"/><polygon points="261,395.64 265.5,383.03999999999996 265.5,381.23999999999995 256.5,381.23999999999995 256.5,383.03999999999996" fill="hsl(339.3000000000029 62% 42%)"/><circle cx="279" cy="351" r="4.5" fill="hsl(339.3000000000029 62% 42%)"/><polygon points="143.64,477 131.04,472.5 129.23999999999998,472.5 129.23999999999998,481.5 131.04,481.5" fill="hsl(116.8080000000009 62% 42%)"/><circle cx="117" cy="477" r="4.5" fill="hsl(116.8080000000009 62% 42%)"/><polygon points="270.36,387 282.96000000000004,391.5 284.76000000000005,391.5 284.76000000000005,382.5 282.96000000000004,382.5" fill="hsl(254.31600000000253 62% 42%)"/><circle cx="297" cy="387" r="4.5" fill="hsl(254.31600000000253 62% 42%)"/><polygon points="377.64,99 365.03999999999996,94.5 363.23999999999995,94.5 363.23999999999995,103.5 365.03999999999996,103.5" fill="hsl(31.824000000000524 62% 42%)"/><circle cx="351" cy="99" r="4.5" fill="hsl(31.824000000000524 62% 42%)"/><polygon points="377.64,171 365.03999999999996,166.5 363.23999999999995,166.5 363.23999999999995,175.5 365.03999999999996,175.5" fill="hsl(169.33200000000215 62% 42%)"/><circle cx="351" cy="189" r="4.5" fill="hsl(169.33200000000215 62% 42%)"/><polygon points="126.36,225 138.96,229.5 140.76000000000002,229.5 140.76000000000002,220.5 138.96,220.5" fill="hsl(306.8400000000038 62% 42%)"/><circle cx="153" cy="207" r="4.5" fill="hsl(306.8400000000038 62% 42%)"/><polygon points="207,251.64 211.5,239.04 211.5,237.23999999999998 202.5,237.23999999999998 202.5,239.04" fill="hsl(84.34800000000178 62% 42%)"/><circle cx="225" cy="207" r="4.5" fill="hsl(84.34800000000178 62% 42%)"/><polygon points="72.36,441 84.96,445.5 86.75999999999999,445.5 86.75999999999999,436.5 84.96,436.5" fill="hsl(221.8560000000034 62% 42%)"/><circle cx="99" cy="423" r="4.5" fill="hsl(221.8560000000034 62% 42%)"/><polygon points="108.36,369 120.96,373.5 122.75999999999999,373.5 122.75999999999999,364.5 120.96,364.5" fill="hsl(359.3640000000014 62% 42%)"/><circle cx="153" cy="369" r="4.5" fill="hsl(359.3640000000014 62% 42%)"/><polygon points="377.64,351 365.03999999999996,346.5 363.23999999999995,346.5 363.23999999999995,355.5 365.03999999999996,355.5" fill="hsl(136.87200000000303 62% 42%)"/><circle cx="351" cy="351" r="4.5" fill="hsl(136.87200000000303 62% 42%)"/><polygon points="126.36,279 138.96,283.5 140.76000000000002,283.5 140.76000000000002,274.5 138.96,274.5" fill="hsl(274.380000000001 62% 42%)"/><circle cx="153" cy="279" r="4.5" fill="hsl(274.380000000001 62% 42%)"/><polygon points="54.36,171 66.96,175.5 68.75999999999999,175.5 68.75999999999999,166.5 66.96,166.5" fill="hsl(51.88800000000265 62% 42%)"/><circle cx="99" cy="171" r="4.5" fill="hsl(51.88800000000265 62% 42%)"/><polygon points="441,305.64 445.5,293.03999999999996 445.5,291.23999999999995 436.5,291.23999999999995 436.5,293.03999999999996" fill="hsl(189.39600000000064 62% 42%)"/><circle cx="441" cy="279" r="4.5" fill="hsl(189.39600000000064 62% 42%)"/><polygon points="269.64,351 257.03999999999996,346.5 255.23999999999995,346.5 255.23999999999995,355.5 257.03999999999996,355.5" fill="hsl(326.90400000000227 62% 42%)"/><circle cx="243" cy="351" r="4.5" fill="hsl(326.90400000000227 62% 42%)"/><polygon points="216.36,261 228.96,265.5 230.76000000000002,265.5 230.76000000000002,256.5 228.96,256.5" fill="hsl(104.4120000000039 62% 42%)"/><circle cx="243" cy="243" r="4.5" fill="hsl(104.4120000000039 62% 42%)"/><polygon points="369,305.64 373.5,293.03999999999996 373.5,291.23999999999995 364.5,291.23999999999995 364.5,293.03999999999996" fill="hsl(241.92000000000553 62% 42%)"/><circle cx="387" cy="279" r="4.5" fill="hsl(241.92000000000553 62% 42%)"/><polygon points="72.36,351 84.96,355.5 86.75999999999999,355.5 86.75999999999999,346.5 84.96,346.5" fill="hsl(19.427999999999884 62% 42%)"/><circle cx="99" cy="351" r="4.5" fill="hsl(19.427999999999884 62% 42%)"/><polygon points="135,144.36 130.5,156.96 130.5,158.76000000000002 139.5,158.76000000000002 139.5,156.96" fill="hsl(156.9360000000015 62% 42%)"/><circle cx="135" cy="171" r="4.5" fill="hsl(156.9360000000015 62% 42%)"/><polygon points="216.36,171 228.96,175.5 230.76000000000002,175.5 230.76000000000002,166.5 228.96,166.5" fill="hsl(294.44400000000314 62% 42%)"/><circle cx="243" cy="207" r="4.5" fill="hsl(294.44400000000314 62% 42%)"/><polygon points="441,161.64 445.5,149.04 445.5,147.23999999999998 436.5,147.23999999999998 436.5,149.04" fill="hsl(71.95200000000477 62% 42%)"/><circle cx="441" cy="117" r="4.5" fill="hsl(71.95200000000477 62% 42%)"/><polygon points="81,161.64 85.5,149.04 85.5,147.23999999999998 76.5,147.23999999999998 76.5,149.04" fill="hsl(209.45999999999913 62% 42%)"/><circle cx="81" cy="117" r="4.5" fill="hsl(209.45999999999913 62% 42%)"/><polygon points="198.36,153 210.96,157.5 212.76000000000002,157.5 212.76000000000002,148.5 210.96,148.5" fill="hsl(346.96800000000076 62% 42%)"/><circle cx="243" cy="153" r="4.5" fill="hsl(346.96800000000076 62% 42%)"/><polygon points="279,288.36 274.5,300.96000000000004 274.5,302.76000000000005 283.5,302.76000000000005 283.5,300.96000000000004" fill="hsl(124.47600000000239 62% 42%)"/><circle cx="279" cy="333" r="4.5" fill="hsl(124.47600000000239 62% 42%)"/><polygon points="378.36,297 390.96000000000004,301.5 392.76000000000005,301.5 392.76000000000005,292.5 390.96000000000004,292.5" fill="hsl(261.984000000004 62% 42%)"/><circle cx="405" cy="297" r="4.5" fill="hsl(261.984000000004 62% 42%)"/><polygon points="234.36,315 246.96,319.5 248.76000000000002,319.5 248.76000000000002,310.5 246.96,310.5" fill="hsl(39.492000000005646 62% 42%)"/><circle cx="261" cy="315" r="4.5" fill="hsl(39.492000000005646 62% 42%)"/><polygon points="189,198.36 184.5,210.96 184.5,212.76000000000002 193.5,212.76000000000002 193.5,210.96" fill="hsl(177 62% 42%)"/><circle cx="189" cy="225" r="4.5" fill="hsl(177 62% 42%)"/><polygon points="251.64,279 239.04,274.5 237.23999999999998,274.5 237.23999999999998,283.5 239.04,283.5" fill="hsl(314.50800000000163 62% 42%)"/><circle cx="225" cy="279" r="4.5" fill="hsl(314.50800000000163 62% 42%)"/><polygon points="342.36,135 354.96000000000004,139.5 356.76000000000005,139.5 356.76000000000005,130.5 354.96000000000004,130.5" fill="hsl(92.01600000000326 62% 42%)"/><circle cx="369" cy="153" r="4.5" fill="hsl(92.01600000000326 62% 42%)"/></g>
</svg>