<svg xmlns="http://www.w3.org/2000/svg" width="576" height="576" viewBox="0 0 576 576">
<rect width="576" height="576" fill="#f6f6fa"/>
<g fill="none" stroke="#232447" stroke-width="9" stroke-linecap="butt" stroke-linejoin="round">
<polyline points="387,545.04 387,531 387,513 387,495 405,495 423,495 441,495 459,495 477,495 495,495 513,495 531,495 549,495 549,513 549,531 549,549 531,549 513,549 495,549 477,549 459,549 441,549 423,549 405,549 405,531 423,531 441,531 459,531 477,531 495,531 513,531 531,531 531,513 513,513 495,513 477,513 459,513 441,513 423,513 405,513" stroke="hsl(0 62% 42%)"/>
<polyline points="531,473.03999999999996 531,459 549,459 549,477" stroke="hsl(137.508 62% 42%)"/>
<polyline points="189,545.04 189,531 189,513 189,495 207,495 207,513 207,531 207,549 225,549 243,549 261,549 279,549 297,549 315,549 333,549 351,549 369,549 369,531 351,531 333,531 315,531 315,513 315,495 315,477 333,477 351,477 369,477 369,495 369,513 351,513 333,513 333,495 351,495" stroke="hsl(275.016 62% 42%)"/>
<polyline points="545.04,27 531,27 513,27 495,27 495,45 495,63 495,81 495,99 477,99 477,117 459,117 441,117 423,117 405,117 387,117 387,99 369,99 351,99 333,99 333,81 333,63 333,45 333,27 315,27 297,27 279,27 261,27 243,27 225,27 207,27 189,27 171,27 153,27 135,27 117,27 99,27 81,27 63,27 45,27 27,27 27,45 27,63 27,81 27,99 45,99 63,99 63,81 63,63 81,63 81,81 99,81 117,81 135,81 153,81 171,81 189,81 207,81 225,81 243,81 261,81 279,81 297,81 315,81 315,99 315,117 315,135 315,153 333,153 351,153 369,153 387,153 405,153 423,153 441,153 441,171 441,189 441,207 441,225 441,243 441,261" stroke="hsl(52.524 62% 42%)"/>
<polyline points="513,473.03999999999996 513,459 495,459 495,477 477,477 459,477 441,477 423,477 405,477 387,477 387,459 369,459 369,441 369,423 351,423 351,441 351,459 333,459 315,459 297,459 297,477 297,495 297,513 297,531 279,531 261,531 243,531 225,531 225,513 225,495 243,495 261,495 279,495 279,477 279,459 279,441 297,441 315,441 333,441 333,423 333,405 315,405 315,387 315,369 333,369 351,369 369,369 387,369 405,369 423,369 441,369 459,369 459,387 459,405 459,423 459,441 477,441 495,441 513,441 531,441 549,441 549,423 549,405 549,387 549,369 549,351 549,333 549,315 531,315 513,315 495,315 477,315 459,315 459,333 459,351 477,351 495,351 513,351 513,369 531,369 531,387 531,405 531,423 513,423 495,423 477,423 477,405 477,387 495,387 513,387 513,405 495,405" stroke="hsl(190.03200000000004 62% 42%)"/>
<polyline points="405,30.96 405,45 405,63 405,81 405,99 423,99 441,99 459,99 459,81 477,81 477,63 477,45 477,27 459,27 441,27 423,27 423,45 441,45 459,45 459,63 441,63 423,63 423,81 441,81" stroke="hsl(327.5400000000001 62% 42%)"/>
<polyline points="369,30.96 369,45 387,45 387,27" stroke="hsl(105.048 62% 42%)"/>
<polyline points="30.96,189 45,189 63,189 63,207 63,225 63,243 63,261 81,261 99,261 99,279 99,297 117,297 135,297 153,297 171,297 189,297 189,315 189,333 189,351 189,369 189,387 189,405 189,423 189,441 189,459 189,477 171,477 153,477 135,477 117,477 99,477 81,477 63,477 45,477 27,477 27,495 27,513 27,531 27,549 45,549 63,549 81,549 99,549 117,549 135,549 153,549 171,549 171,531 171,513 171,495 153,495 135,495 117,495 117,513 117,531 99,531 81,531 63,531 63,513 63,495 45,495 45,513 45,531" stroke="hsl(242.55600000000004 62% 42%)"/>
<polyline points="30.96,405 45,405 63,405 63,423 63,441 63,459 45,459 27,459 27,441 27,423 45,423 45,441" stroke="hsl(20.064000000000078 62% 42%)"/>
<polyline points="171,48.96 171,63 189,63 207,63 225,63 243,63 243,45 261,45 279,45 297,45 315,45 315,63 297,63 279,63 261,63" stroke="hsl(157.57200000000012 62% 42%)"/>
<polyline points="81,509.03999999999996 81,495 99,495 99,513" stroke="hsl(295.08000000000015 62% 42%)"/>
<polyline points="84.96,99 99,99 117,99 135,99 153,99 153,117 135,117 117,117 99,117 81,117 63,117 45,117 27,117 27,135 27,153 27,171 45,171 63,171 81,171 81,153 81,135 63,135 45,135 45,153 63,153" stroke="hsl(72.58800000000019 62% 42%)"/>
<polyline points="545.04,297 531,297 531,279 531,261 531,243 549,243 549,261 549,279" stroke="hsl(210.096 62% 42%)"/>
<polyline points="45,48.96 45,63 45,81" stroke="hsl(347.60400000000004 62% 42%)"/>
<polyline points="135,48.96 135,63 153,63 153,45" stroke="hsl(125.11200000000008 62% 42%)"/>
<polyline points="369,66.96 369,81 387,81 387,63" stroke="hsl(262.62000000000035 62% 42%)"/>
<polyline points="513,48.96 513,63 531,63 549,63 549,45 531,45" stroke="hsl(40.128000000000156 62% 42%)"/>
<polyline points="30.96,261 45,261 45,243 45,225 45,207 27,207 27,225 27,243" stroke="hsl(177.63599999999997 62% 42%)"/>
<polyline points="509.03999999999996,297 495,297 477,297 459,297 459,279 441,279 423,279 423,261 423,243 423,225 423,207 423,189 423,171 405,171 387,171 369,171 351,171 333,171 315,171 315,189 315,207 333,207 351,207 369,207 387,207 405,207 405,225 405,243 405,261 387,261 369,261 369,243 387,243 387,225 369,225 351,225 333,225 315,225 297,225 279,225 279,243 279,261 279,279 297,279 297,261 315,261" stroke="hsl(315.14400000000023 62% 42%)"/>
<polyline points="30.96,279 45,279 63,279 81,279 81,297 81,315 81,333 81,351 81,369 81,387 81,405 81,423 81,441 81,459 99,459 117,459 135,459 153,459 171,459 171,441 171,423 171,405 171,387 171,369 171,351 171,333 171,315 153,315 135,315 117,315 99,315 99,333 117,333 135,333 153,333 153,351 153,369 153,387 153,405 153,423 153,441 135,441 117,441 99,441 99,423 99,405 99,387 99,369 117,369 135,369 135,387 135,405 135,423 117,423 117,405 117,387" stroke="hsl(92.65200000000004 62% 42%)"/>
<polyline points="549,84.96 549,99 549,117 549,135 549,153 531,153 513,153 495,153 477,153 459,153 459,135 441,135 423,135 405,135 387,135 369,135 351,135 333,135 333,117 351,117 369,117" stroke="hsl(230.1600000000003 62% 42%)"/>
<polyline points="441,300.96000000000004 441,315 441,333 423,333 405,333 387,333 369,333 351,333 333,333 315,333 297,333 279,333 261,333 243,333 243,315 243,297 243,279 261,279 261,261 261,243 261,225 243,225 243,207 243,189 243,171 261,171 279,171 297,171 297,153 279,153 261,153 243,153 225,153 207,153 189,153 171,153 153,153 153,135 171,135 171,117 171,99 189,99 207,99 225,99 243,99 261,99 279,99 297,99 297,117 297,135 279,135 261,135 243,135 243,117 261,117 279,117" stroke="hsl(7.66800000000012 62% 42%)"/>
<polyline points="243,246.96 243,261 225,261 207,261 189,261 171,261 171,243 153,243 135,243 117,243 99,243 81,243 81,225 81,207 81,189 99,189 117,189 135,189 153,189 171,189 189,189 189,171 207,171 225,171 225,189 225,207 225,225 207,225 189,225 171,225 153,225 135,225 117,225 99,225 99,207 117,207 135,207 153,207 171,207 189,207 207,207 207,189" stroke="hsl(145.17600000000039 62% 42%)"/>
<polyline points="27,300.96000000000004 27,315 27,333 27,351 27,369 27,387 45,387 63,387 63,369 63,351 63,333 63,315 63,297 45,297 45,315 45,333 45,351 45,369" stroke="hsl(282.6840000000002 62% 42%)"/>
<polyline points="351,30.96 351,45 351,63 351,81" stroke="hsl(60.19200000000001 62% 42%)"/>
<polyline points="387,437.03999999999996 387,423 405,423 423,423 441,423 441,441 441,459 459,459 477,459" stroke="hsl(197.70000000000027 62% 42%)"/>
<polyline points="527.04,117 513,117 495,117 495,135 477,135" stroke="hsl(335.2080000000001 62% 42%)"/>
<polyline points="243,354.96000000000004 243,369 225,369 207,369 207,351 207,333 207,315 207,297 225,297 225,279 207,279 189,279 171,279 153,279 153,261 135,261 117,261 117,279 135,279" stroke="hsl(112.71600000000035 62% 42%)"/>
<polyline points="210.96,441 225,441 243,441 261,441 261,459 261,477 243,477 225,477 207,477 207,459 225,459 243,459" stroke="hsl(250.22400000000016 62% 42%)"/>
<polyline points="221.04,45 207,45 189,45" stroke="hsl(27.732000000000426 62% 42%)"/>
<polyline points="531,347.03999999999996 531,333 513,333 495,333 477,333" stroke="hsl(165.2400000000007 62% 42%)"/>
<polyline points="336.96000000000004,261 351,261 351,243 333,243 315,243 297,243" stroke="hsl(302.7480000000005 62% 42%)"/>
<polyline points="135,138.96 135,153 135,171 153,171 171,171" stroke="hsl(80.25600000000031 62% 42%)"/>
<polyline points="102.96,351 117,351 135,351" stroke="hsl(217.76400000000012 62% 42%)"/>
<polyline points="509.03999999999996,261 495,261 477,261 477,279 495,279 513,279" stroke="hsl(355.27199999999993 62% 42%)"/>
<polyline points="264.96000000000004,189 279,189 297,189 297,207 279,207 261,207" stroke="hsl(132.78000000000065 62% 42%)"/>
<polyline points="102.96,171 117,171 117,153 117,135 99,135 99,153" stroke="hsl(270.28800000000047 62% 42%)"/>
<polyline points="153,527.04 153,513 135,513 135,531" stroke="hsl(47.79600000000028 62% 42%)"/>
<polyline points="441,401.03999999999996 441,387 423,387 405,387 387,387 369,387 351,387 333,387" stroke="hsl(185.3040000000001 62% 42%)"/>
<polyline points="246.96,513 261,513 279,513" stroke="hsl(322.8120000000008 62% 42%)"/>
<polyline points="527.04,99 513,99 513,81 531,81" stroke="hsl(100.32000000000062 62% 42%)"/>
<polyline points="462.96000000000004,207 477,207 495,207 495,225 495,243 513,243 513,225 513,207 513,189 513,171 495,171 477,171 459,171 459,189 477,189 495,189" stroke="hsl(237.82800000000043 62% 42%)"/>
<polyline points="189,120.96 189,135 207,135 225,135 225,117 207,117" stroke="hsl(15.33600000000024 62% 42%)"/>
<polyline points="66.96,45 81,45 99,45 117,45 117,63 99,63" stroke="hsl(152.84400000000005 62% 42%)"/>
<polyline points="264.96000000000004,297 279,297 297,297 297,315 315,315 333,315 333,297 333,279 315,279 315,297" stroke="hsl(290.35200000000077 62% 42%)"/>
<polyline points="459,228.96 459,243 459,261" stroke="hsl(67.86000000000058 62% 42%)"/>
<polyline points="423,455.03999999999996 423,441 405,441 405,459" stroke="hsl(205.3680000000004 62% 42%)"/>
<polyline points="531,221.04 531,207 531,189 531,171 549,171 549,189 549,207 549,225" stroke="hsl(342.8760000000002 62% 42%)"/>
<polyline points="419.03999999999996,315 405,315 387,315 369,315 351,315 351,297 351,279 369,279 387,279 405,279 405,297 423,297" stroke="hsl(120.38400000000001 62% 42%)"/>
<polyline points="192.96,243 207,243 225,243" stroke="hsl(257.89200000000073 62% 42%)"/>
<polyline points="491.03999999999996,369 477,369" stroke="hsl(35.400000000000546 62% 42%)"/>
<polyline points="210.96,423 225,423 243,423 261,423 279,423 297,423 315,423" stroke="hsl(172.90800000000036 62% 42%)"/>
<polyline points="383.03999999999996,297 369,297" stroke="hsl(310.41600000000017 62% 42%)"/>
<polyline points="477,239.04 477,225" stroke="hsl(87.92400000000089 62% 42%)"/>
<polyline points="437.03999999999996,351 423,351 405,351 387,351 369,351 351,351 333,351 315,351 297,351 279,351 261,351 261,369 261,387 261,405 279,405 297,405 297,387 297,369 279,369 279,387" stroke="hsl(225.4320000000007 62% 42%)"/>
<polyline points="207,401.03999999999996 207,387 225,387 243,387 243,405 225,405" stroke="hsl(2.9400000000005093 62% 42%)"/>
<polyline points="225,347.03999999999996 225,333 225,315" stroke="hsl(140.44800000000032 62% 42%)"/>
<polyline points="401.03999999999996,189 387,189 369,189 351,189 333,189" stroke="hsl(277.95600000000013 62% 42%)"/>
<polyline points="419.03999999999996,405 405,405 387,405 369,405 351,405" stroke="hsl(55.46400000000085 62% 42%)"/>
<polyline points="527.04,135 513,135" stroke="hsl(192.97200000000066 62% 42%)"/>
<polyline points="275.03999999999996,315 261,315" stroke="hsl(330.4800000000014 62% 42%)"/>
</g>
<g fill="#232447"><polygon points="387,557.64 391.5,545.04 391.5,543.24 382.5,543.24 382.5,545.04" fill="hsl(0 62% 42%)"/><circle cx="405" cy="513" r="4.5" fill="hsl(0 62% 42%)"/><polygon points="531,485.64 535.5,473.03999999999996 535.5,471.23999999999995 526.5,471.23999999999995 526.5,473.03999999999996" fill="hsl(137.508 62% 42%)"/><circle cx="549" cy="477" r="4.5" fill="hsl(137.508 62% 42%)"/><polygon points="189,557.64 193.5,545.04 193.5,543.24 184.5,543.24 184.5,545.04" fill="hsl(275.016 62% 42%)"/><circle cx="351" cy="495" r="4.5" fill="hsl(275.016 62% 42%)"/><polygon points="557.64,27 545.04,22.5 543.24,22.5 543.24,31.5 545.04,31.5" fill="hsl(52.524 62% 42%)"/><circle cx="441" cy="261" r="4.5" fill="hsl(52.524 62% 42%)"/><polygon points="513,485.64 517.5,473.03999999999996 517.5,471.23999999999995 508.5,471.23999999999995 508.5,473.03999999999996" fill="hsl(190.03200000000004 62% 42%)"/><circle cx="495" cy="405" r="4.5" fill="hsl(190.03200000000004 62% 42%)"/><polygon points="405,18.36 400.5,30.96 400.5,32.76 409.5,32.76 409.5,30.96" fill="hsl(327.5400000000001 62% 42%)"/><circle cx="441" cy="81" r="4.5" fill="hsl(327.5400000000001 62% 42%)"/><polygon points="369,18.36 364.5,30.96 364.5,32.76 373.5,32.76 373.5,30.96" fill="hsl(105.048 62% 42%)"/><circle cx="387" cy="27" r="4.5" fill="hsl(105.048 62% 42%)"/><polygon points="18.36,189 30.96,193.5 32.76,193.5 32.76,184.5 30.96,184.5" fill="hsl(242.55600000000004 62% 42%)"/><circle cx="45" cy="531" r="4.5" fill="hsl(242.55600000000004 62% 42%)"/><polygon points="18.36,405 30.96,409.5 32.76,409.5 32.76,400.5 30.96,400.5" fill="hsl(20.064000000000078 62% 42%)"/><circle cx="45" cy="441" r="4.5" fill="hsl(20.064000000000078 62% 42%)"/><polygon points="171,36.36 166.5,48.96 166.5,50.76 175.5,50.76 175.5,48.96" fill="hsl(157.57200000000012 62% 42%)"/><circle cx="261" cy="63" r="4.5" fill="hsl(157.57200000000012 62% 42%)"/><polygon points="81,521.64 85.5,509.03999999999996 85.5,507.23999999999995 76.5,507.23999999999995 76.5,509.03999999999996" fill="hsl(295.08000000000015 62% 42%)"/><circle cx="99" cy="513" r="4.5" fill="hsl(295.08000000000015 62% 42%)"/><polygon points="72.36,99 84.96,103.5 86.75999999999999,103.5 86.75999999999999,94.5 84.96,94.5" fill="hsl(72.58800000000019 62% 42%)"/><circle cx="63" cy="153" r="4.5" fill="hsl(72.58800000000019 62% 42%)"/><polygon points="557.64,297 545.04,292.5 543.24,292.5 543.24,301.5 545.04,301.5" fill="hsl(210.096 62% 42%)"/><circle cx="549" cy="279" r="4.5" fill="hsl(210.096 62% 42%)"/><polygon points="45,36.36 40.5,48.96 40.5,50.76 49.5,50.76 49.5,48.96" fill="hsl(347.60400000000004 62% 42%)"/><circle cx="45" cy="81" r="4.5" fill="hsl(347.60400000000004 62% 42%)"/><polygon points="135,36.36 130.5,48.96 130.5,50.76 139.5,50.76 139.5,48.96" fill="hsl(125.11200000000008 62% 42%)"/><circle cx="153" cy="45" r="4.5" fill="hsl(125.11200000000008 62% 42%)"/><polygon points="369,54.36 364.5,66.96 364.5,68.75999999999999 373.5,68.75999999999999 373.5,66.96" fill="hsl(262.62000000000035 62% 42%)"/><circle cx="387" cy="63" r="4.5" fill="hsl(262.62000000000035 62% 42%)"/><polygon points="513,36.36 508.5,48.96 508.5,50.76 517.5,50.76 517.5,48.96" fill="hsl(40.128000000000156 62% 42%)"/><circle cx="531" cy="45" r="4.5" fill="hsl(40.128000000000156 62% 42%)"/><polygon points="18.36,261 30.96,265.5 32.76,265.5 32.76,256.5 30.96,256.5" fill="hsl(177.63599999999997 62% 42%)"/><circle cx="27" cy="243" r="4.5" fill="hsl(177.63599999999997 62% 42%)"/><polygon points="521.64,297 509.03999999999996,292.5 507.23999999999995,292.5 507.23999999999995,301.5 509.03999999999996,301.5" fill="hsl(315.14400000000023 62% 42%)"/><circle cx="315" cy="261" r="4.5" fill="hsl(315.14400000000023 62% 42%)"/><polygon points="18.36,279 30.96,283.5 32.76,283.5 32.76,274.5 30.96,274.5" fill="hsl(92.65200000000004 62% 42%)"/><circle cx="117" cy="387" r="4.5" fill="hsl(92.65200000000004 62% 42%)"/><polygon points="549,72.36 544.5,84.96 544.5,86.75999999999999 553.5,86.75999999999999 553.5,84.96" fill="hsl(230.1600000000003 62% 42%)"/><circle cx="369" cy="117" r="4.5" fill="hsl(230.1600000000003 62% 42%)"/><polygon points="441,288.36 436.5,300.96000000000004 436.5,302.76000000000005 445.5,302.76000000000005 445.5,300.96000000000004" fill="hsl(7.66800000000012 62% 42%)"/><circle cx="279" cy="117" r="4.5" fill="hsl(7.66800000000012 62% 42%)"/><polygon points="243,234.36 238.5,246.96 238.5,248.76000000000002 247.5,248.76000000000002 247.5,246.96" fill="hsl(145.17600000000039 62% 42%)"/><circle cx="207" cy="189" r="4.5" fill="hsl(145.17600000000039 62% 42%)"/><polygon points="27,288.36 22.5,300.96000000000004 22.5,302.76000000000005 31.5,302.76000000000005 31.5,300.96000000000004" fill="hsl(282.6840000000002 62% 42%)"/><circle cx="45" cy="369" r="4.5" fill="hsl(282.6840000000002 62% 42%)"/><polygon points="351,18.36 346.5,30.96 346.5,32.76 355.5,32.76 355.5,30.96" fill="hsl(60.19200000000001 62% 42%)"/><circle cx="351" cy="81" r="4.5" fill="hsl(60.19200000000001 62% 42%)"/><polygon points="387,449.64 391.5,437.03999999999996 391.5,435.23999999999995 382.5,435.23999999999995 382.5,437.03999999999996" fill="hsl(197.70000000000027 62% 42%)"/><circle cx="477" cy="459" r="4.5" fill="hsl(197.70000000000027 62% 42%)"/><polygon points="539.64,117 527.04,112.5 525.24,112.5 525.24,121.5 527.04,121.5" fill="hsl(335.2080000000001 62% 42%)"/><circle cx="477" cy="135" r="4.5" fill="hsl(335.2080000000001 62% 42%)"/><polygon points="243,342.36 238.5,354.96000000000004 238.5,356.76000000000005 247.5,356.76000000000005 247.5,354.96000000000004" fill="hsl(112.71600000000035 62% 42%)"/><circle cx="135" cy="279" r="4.5" fill="hsl(112.71600000000035 62% 42%)"/><polygon points="198.36,441 210.96,445.5 212.76000000000002,445.5 212.76000000000002,436.5 210.96,436.5" fill="hsl(250.22400000000016 62% 42%)"/><circle cx="243" cy="459" r="4.5" fill="hsl(250.22400000000016 62% 42%)"/><polygon points="233.64,45 221.04,40.5 219.23999999999998,40.5 219.23999999999998,49.5 221.04,49.5" fill="hsl(27.732000000000426 62% 42%)"/><circle cx="189" cy="45" r="4.5" fill="hsl(27.732000000000426 62% 42%)"/><polygon points="531,359.64 535.5,347.03999999999996 535.5,345.23999999999995 526.5,345.23999999999995 526.5,347.03999999999996" fill="hsl(165.2400000000007 62% 42%)"/><circle cx="477" cy="333" r="4.5" fill="hsl(165.2400000000007 62% 42%)"/><polygon points="324.36,261 336.96000000000004,265.5 338.76000000000005,265.5 338.76000000000005,256.5 336.96000000000004,256.5" fill="hsl(302.7480000000005 62% 42%)"/><circle cx="297" cy="243" r="4.5" fill="hsl(302.7480000000005 62% 42%)"/><polygon points="135,126.36 130.5,138.96 130.5,140.76000000000002 139.5,140.76000000000002 139.5,138.96" fill="hsl(80.25600000000031 62% 42%)"/><circle cx="171" cy="171" r="4.5" fill="hsl(80.25600000000031 62% 42%)"/><polygon points="90.36,351 102.96,355.5 104.75999999999999,355.5 104.75999999999999,346.5 102.96,346.5" fill="hsl(217.76400000000012 62% 42%)"/><circle cx="135" cy="351" r="4.5" fill="hsl(217.76400000000012 62% 42%)"/><polygon points="521.64,261 509.03999999999996,256.5 507.23999999999995,256.5 507.23999999999995,265.5 509.03999999999996,265.5" fill="hsl(355.27199999999993 62% 42%)"/><circle cx="513" cy="279" r="4.5" fill="hsl(355.27199999999993 62% 42%)"/><polygon points="252.36,189 264.96000000000004,193.5 266.76000000000005,193.5 266.76000000000005,184.5 264.96000000000004,184.5" fill="hsl(132.78000000000065 62% 42%)"/><circle cx="261" cy="207" r="4.5" fill="hsl(132.78000000000065 62% 42%)"/><polygon points="90.36,171 102.96,175.5 104.75999999999999,175.5 104.75999999999999,166.5 102.96,166.5" fill="hsl(270.28800000000047 62% 42%)"/><circle cx="99" cy="153" r="4.5" fill="hsl(270.28800000000047 62% 42%)"/><polygon points="153,539.64 157.5,527.04 157.5,525.24 148.5,525.24 148.5,527.04" fill="hsl(47.79600000000028 62% 42%)"/><circle cx="135" cy="531" r="4.5" fill="hsl(47.79600000000028 62% 42%)"/><polygon points="441,413.64 445.5,401.03999999999996 445.5,399.23999999999995 436.5,399.23999999999995 436.5,401.03999999999996" fill="hsl(185.3040000000001 62% 42%)"/><circle cx="333" cy="387" r="4.5" fill="hsl(185.3040000000001 62% 42%)"/><polygon points="234.36,513 246.96,517.5 248.76000000000002,517.5 248.76000000000002,508.5 246.96,508.5" fill="hsl(322.8120000000008 62% 42%)"/><circle cx="279" cy="513" r="4.5" fill="hsl(322.8120000000008 62% 42%)"/><polygon points="539.64,99 527.04,94.5 525.24,94.5 525.24,103.5 527.04,103.5" fill="hsl(100.32000000000062 62% 42%)"/><circle cx="531" cy="81" r="4.5" fill="hsl(100.32000000000062 62% 42%)"/><polygon points="450.36,207 462.96000000000004,211.5 464.76000000000005,211.5 464.76000000000005,202.5 462.96000000000004,202.5" fill="hsl(237.82800000000043 62% 42%)"/><circle cx="495" cy="189" r="4.5" fill="hsl(237.82800000000043 62% 42%)"/><polygon points="189,108.36 184.5,120.96 184.5,122.75999999999999 193.5,122.75999999999999 193.5,120.96" fill="hsl(15.33600000000024 62% 42%)"/><circle cx="207" cy="117" r="4.5" fill="hsl(15.33600000000024 62% 42%)"/><polygon points="54.36,45 66.96,49.5 68.75999999999999,49.5 68.75999999999999,40.5 66.96,40.5" fill="hsl(152.84400000000005 62% 42%)"/><circle cx="99" cy="63" r="4.5" fill="hsl(152.84400000000005 62% 42%)"/><polygon points="252.36,297 264.96000000000004,301.5 266.76000000000005,301.5 266.76000000000005,292.5 264.96000000000004,292.5" fill="hsl(290.35200000000077 62% 42%)"/><circle cx="315" cy="297" r="4.5" fill="hsl(290.35200000000077 62% 42%)"/><polygon points="459,216.36 454.5,228.96 454.5,230.76000000000002 463.5,230.76000000000002 463.5,228.96" fill="hsl(67.86000000000058 62% 42%)"/><circle cx="459" cy="261" r="4.5" fill="hsl(67.86000000000058 62% 42%)"/><polygon points="423,467.64 427.5,455.03999999999996 427.5,453.23999999999995 418.5,453.23999999999995 418.5,455.03999999999996" fill="hsl(205.3680000000004 62% 42%)"/><circle cx="405" cy="459" r="4.5" fill="hsl(205.3680000000004 62% 42%)"/><polygon points="531,233.64 535.5,221.04 535.5,219.23999999999998 526.5,219.23999999999998 526.5,221.04" fill="hsl(342.8760000000002 62% 42%)"/><circle cx="549" cy="225" r="4.5" fill="hsl(342.8760000000002 62% 42%)"/><polygon points="431.64,315 419.03999999999996,310.5 417.23999999999995,310.5 417.23999999999995,319.5 419.03999999999996,319.5" fill="hsl(120.38400000000001 62% 42%)"/><circle cx="423" cy="297" r="4.5" fill="hsl(120.38400000000001 62% 42%)"/><polygon points="180.36,243 192.96,247.5 194.76000000000002,247.5 194.76000000000002,238.5 192.96,238.5" fill="hsl(257.89200000000073 62% 42%)"/><circle cx="225" cy="243" r="4.5" fill="hsl(257.89200000000073 62% 42%)"/><polygon points="503.64,369 491.03999999999996,364.5 489.23999999999995,364.5 489.23999999999995,373.5 491.03999999999996,373.5" fill="hsl(35.400000000000546 62% 42%)"/><circle cx="477" cy="369" r="4.5" fill="hsl(35.400000000000546 62% 42%)"/><polygon points="198.36,423 210.96,427.5 212.76000000000002,427.5 212.76000000000002,418.5 210.96,418.5" fill="hsl(172.90800000000036 62% 42%)"/><circle cx="315" cy="423" r="4.5" fill="hsl(172.90800000000036 62% 42%)"/><polygon points="395.64,297 383.03999999999996,292.5 381.23999999999995,292.5 381.23999999999995,301.5 383.03999999999996,301.5" fill="hsl(310.41600000000017 62% 42%)"/><circle cx="369" cy="297" r="4.5" fill="hsl(310.41600000000017 62% 42%)"/><polygon points="477,251.64 481.5,239.04 481.5,237.23999999999998 472.5,237.23999999999998 472.5,239.04" fill="hsl(87.92400000000089 62% 42%)"/><circle cx="477" cy="225" r="4.5" fill="hsl(87.92400000000089 62% 42%)"/><polygon points="449.64,351 437.03999999999996,346.5 435.23999999999995,346.5 435.23999999999995,355.5 437.03999999999996,355.5" fill="hsl(225.4320000000007 62% 42%)"/><circle cx="279" cy="387" r="4.5" fill="hsl(225.4320000000007 62% 42%)"/><polygon points="207,413.64 211.5,401.03999999999996 211.5,399.23999999999995 202.5,399.23999999999995 202.5,401.03999999999996" fill="hsl(2.9400000000005093 62% 42%)"/><circle cx="225" cy="405" r="4.5" fill="hsl(2.9400000000005093 62% 42%)"/><polygon points="225,359.64 229.5,347.03999999999996 229.5,345.23999999999995 220.5,345.23999999999995 220.5,347.03999999999996" fill="hsl(140.44800000000032 62% 42%)"/><circle cx="225" cy="315" r="4.5" fill="hsl(140.44800000000032 62% 42%)"/><polygon points="413.64,189 401.03999999999996,184.5 399.23999999999995,184.5 399.23999999999995,193.5 401.03999999999996,193.5" fill="hsl(277.95600000000013 62% 42%)"/><circle cx="333" cy="189" r="4.5" fill="hsl(277.95600000000013 62% 42%)"/><polygon points="431.64,405 419.03999999999996,400.5 417.23999999999995,400.5 417.23999999999995,409.5 419.03999999999996,409.5" fill="hsl(55.46400000000085 62% 42%)"/><circle cx="351" cy="405" r="4.5" fill="hsl(55.46400000000085 62% 42%)"/><polygon points="539.64,135 527.04,130.5 525.24,130.5 525.24,139.5 527.04,139.5" fill="hsl(192.97200000000066 62% 42%)"/><circle cx="513" cy="135" r="4.5" fill="hsl(192.97200000000066 62% 42%)"/><polygon points="287.64,315 275.03999999999996,310.5 273.23999999999995,310.5 273.23999999999995,319.5 275.03999999999996,319.5" fill="hsl(330.4800000000014 62% 42%)"/><circle cx="261" cy="315" r="4.5" fill="hsl(330.4800000000014 62% 42%)"/></g>
</svg>